<svg width="412" height="95" viewBox="0 0 412 95" fill="none" xmlns="http://www.w3.org/2000/svg">
<path fill-rule="evenodd" clip-rule="evenodd" d="M49.0686 95L27.0732 57.0599H14.1281V95H0V0.133121H30.8482C37.9381 0.133121 43.9802 1.34953 48.9307 3.83559C53.9417 6.30774 57.7272 9.67673 60.229 13.959C62.717 18.2176 63.949 23.0623 63.949 28.4634C63.949 35.0695 62.0264 40.9275 58.1749 45.9967C54.61 50.7986 49.3634 54.0391 42.5351 55.775L65.9336 95H49.0686ZM40.9184 55.088C41.2763 55.01 41.6297 54.9282 41.9787 54.8424C48.7804 53.1704 53.9038 50.013 57.3487 45.37C61.0588 40.4888 62.9138 34.8533 62.9138 28.4634C62.9138 23.2272 61.7213 18.5679 59.3363 14.4855C56.9512 10.403 53.3295 7.16369 48.4711 4.76747C43.701 2.37125 37.8267 1.17315 30.8482 1.17315H1.03518V93.96H13.0929V56.0199H27.6682L49.6636 93.96H64.1064L40.9184 55.088ZM44.8452 16.4397C41.936 13.6792 37.3418 12.1974 30.8482 12.1974H14.1281V45.2619H30.8482C37.2289 45.2619 41.824 43.7032 44.829 40.769C47.8678 37.7133 49.4234 33.6478 49.4234 28.4634C49.4234 23.1789 47.8623 19.2253 44.8556 16.4494L44.8452 16.4397ZM45.556 41.5095C42.2876 44.7044 37.385 46.3019 30.8482 46.3019H13.0929V11.1574H30.8482C37.4734 11.1574 42.376 12.6661 45.556 15.6836C48.8244 18.701 50.4586 22.961 50.4586 28.4634C50.4586 33.8771 48.8244 38.2257 45.556 41.5095ZM128.398 41.0019V53.0662H94.7424V82.9357H132.373V95H80.6143V0H132.373V12.0643H94.7424V41.0019H128.398ZM93.7072 11.0243H131.338V1.04002H81.6495V93.96H131.338V83.9757H93.7072V52.0262H127.363V42.042H93.7072V11.0243ZM227.401 0.133121L191.772 95H176.428L140.798 0.133121H155.873L184.166 78.1424L212.46 0.133121H227.401ZM184.166 81.1802L155.148 1.17315H142.295L177.143 93.96H191.056L225.904 1.17315H213.184L184.166 81.1802ZM252.219 0.133121V95H238.09V0.133121H252.219ZM349.552 0.133121L313.923 95H298.578L262.949 0.133121H278.023L306.317 78.1424L334.61 0.133121H349.552ZM306.317 81.1802L277.299 1.17315H264.446L299.294 93.96H313.207L348.055 1.17315H335.335L306.317 81.1802ZM408.025 41.0019V53.0662H374.369V82.9357H412V95H360.241V0H412V12.0643H374.369V41.0019H408.025ZM373.334 11.0243H410.965V1.04002H361.276V93.96H410.965V83.9757H373.334V52.0262H406.99V42.042H373.334V11.0243ZM251.183 1.17315H239.126V93.96H251.183V1.17315Z" fill="white" fill-opacity="0.5"/>
</svg>
