<svg width="314" height="314" viewBox="0 0 314 314" fill="none" xmlns="http://www.w3.org/2000/svg">
<path d="M156.998 306.977C240.16 306.977 307.576 239.56 307.576 156.398C307.576 73.2354 240.16 5.81879 156.998 5.81879C73.8367 5.81879 6.42093 73.2354 6.42093 156.398C6.42093 239.56 73.8367 306.977 156.998 306.977Z" stroke="white" stroke-opacity="0.05" stroke-miterlimit="10"/>
<path d="M156.998 313C70.8679 313 1 243.131 1 157C1 70.8687 70.8679 1 156.998 1C243.128 1 312.996 70.8687 312.996 157C313.598 242.529 243.128 313 156.998 313Z" stroke="white" stroke-opacity="0.05" stroke-miterlimit="10"/>
<path d="M251.561 121.464C255.777 117.85 256.379 118.452 258.186 119.054C264.209 122.668 272.641 121.464 276.858 116.043C278.062 114.236 280.471 111.224 280.471 108.815C281.074 107.008 281.074 105.803 280.471 103.996C280.471 103.394 279.267 101.587 279.267 100.985C275.653 93.1547 266.016 89.5408 258.186 93.757C253.367 96.7685 249.754 102.792 251.561 110.02C251.561 110.622 251.561 111.224 250.958 111.224C246.14 114.236 240.719 117.247 235.901 120.259C234.696 120.861 234.094 120.861 233.491 120.259C231.082 118.452 228.673 116.645 226.264 114.838C219.036 110.02 211.808 105.803 203.376 102.792C202.774 102.189 202.774 102.189 202.774 101.587C206.387 94.9616 209.399 88.3361 213.013 81.7106C213.013 81.1083 213.615 81.1083 214.217 81.1083C216.024 81.1083 218.434 81.1083 220.24 80.506C228.673 78.0967 232.889 67.8574 228.673 60.0272C225.059 52.7994 217.229 49.7879 210.001 52.7994C205.183 54.6064 202.171 58.8226 200.967 63.6411C200.364 68.4597 200.967 72.6759 204.58 76.2898C205.183 76.8921 205.183 77.4944 204.58 78.0967C203.376 80.506 201.569 83.5176 200.364 86.5292C197.955 90.7454 196.148 94.9616 193.739 99.1778C193.137 99.7801 193.137 99.7801 192.534 99.7801C191.932 99.7801 191.33 99.1778 190.727 99.1778C188.318 98.5755 183.5 97.3709 180.488 96.7685C177.477 96.1662 174.465 95.5639 170.851 94.9616C167.237 94.3593 163.623 94.3593 159.407 93.757C160.612 93.757 160.612 93.1547 160.612 92.5523C160.612 84.7222 160.612 77.4944 160.612 69.6643C160.612 69.062 161.214 69.062 161.214 68.4597C162.419 67.8574 163.623 67.255 164.828 66.0504C170.249 61.8342 172.056 54.0041 168.442 47.3786C165.43 41.9577 157.6 38.3438 150.975 40.7531C141.94 43.7647 137.724 55.2087 144.35 63.6411C146.156 66.0504 147.963 67.255 150.373 68.4597C151.577 69.062 150.975 69.062 150.975 71.4713C150.975 79.3014 150.975 82.313 150.975 90.7454C150.975 92.5523 150.975 93.1546 149.77 93.1546C148.566 93.1546 147.361 93.1546 146.156 93.1546C142.543 93.757 138.929 93.757 135.917 94.3593C132.906 94.9616 130.496 95.5639 127.485 96.1662C123.871 96.7685 120.859 97.9732 117.246 98.5755C116.643 98.5755 116.041 98.5755 116.041 97.9732C112.427 91.3477 108.813 84.1199 105.199 77.4944C104.597 76.8921 105.199 76.2898 105.199 75.6875C108.813 71.4713 110.018 66.6527 108.211 61.2319C105.802 53.4018 97.3694 49.1855 88.9371 52.1971C81.7094 55.2087 77.4932 63.6411 80.5047 70.8689C82.914 77.4944 88.9371 81.1083 95.5625 80.506C96.1648 80.506 96.7671 81.1083 96.7671 81.1083C100.381 87.7338 103.392 94.3593 107.006 100.985C107.609 101.587 107.006 102.189 106.404 102.189C102.79 103.394 99.7786 105.201 96.7671 106.406C89.5394 110.02 82.914 114.838 76.2886 119.657C75.6863 120.259 75.0839 120.259 74.4816 119.657C69.6632 116.645 64.2424 113.633 59.4239 110.622C58.8216 110.02 58.8216 110.02 58.8216 109.417C59.4239 107.008 59.4239 103.996 58.8216 101.587C57.0147 95.5639 52.7985 91.95 46.7754 91.3477C41.3546 90.7454 35.3315 93.1547 32.32 97.9732C30.5131 100.985 29.9108 105.201 30.5131 108.815C30.5131 109.417 30.5131 109.417 30.5131 110.02C31.1154 111.224 31.7177 113.031 32.9223 114.236C35.9339 119.054 40.7523 120.861 46.7754 120.259C48.5823 120.259 50.9916 119.054 52.7985 117.85C53.4008 117.85 54.0031 117.85 54.6054 117.85C59.4239 120.259 63.6401 123.27 68.4585 125.68L69.0609 126.282C67.2539 128.691 65.447 130.498 63.6401 132.305C58.2193 138.931 53.4008 145.556 49.1847 153.386C46.7754 158.205 47.3777 162.421 49.787 166.637C57.617 181.695 68.4585 193.742 81.7093 203.981C87.1301 208.197 93.1532 211.811 99.1763 214.823C99.7786 215.425 100.381 215.425 99.7786 216.027C98.574 219.039 97.3694 222.05 96.1648 225.062C96.1648 225.664 95.5625 225.664 94.9602 225.664C88.9371 225.664 84.1186 229.278 82.3117 235.301C80.5047 240.722 82.914 247.348 88.9371 250.359C96.1648 253.973 105.199 250.359 107.006 242.529C108.211 238.313 107.609 234.097 104.597 230.483C103.995 229.278 103.995 228.676 104.597 226.869C105.802 224.46 107.006 222.05 107.609 219.641C108.211 217.834 108.211 217.834 109.416 218.437C113.632 220.243 117.848 221.448 122.064 222.653C128.689 223.857 135.315 225.062 141.94 226.267C144.35 226.869 146.759 226.869 149.168 226.869C150.373 226.869 150.373 227.471 150.373 228.676C150.373 234.097 150.373 235.904 150.373 239.518C150.373 240.722 150.373 241.325 149.77 241.927C144.952 244.336 142.543 247.95 142.543 253.371C142.543 258.792 144.952 262.406 149.77 265.417C149.77 265.417 150.373 265.417 150.373 266.02H150.975C153.986 266.622 156.998 266.622 160.01 266.02C160.612 266.02 161.214 266.02 161.214 265.417C166.033 263.008 168.442 258.792 168.442 253.371C168.442 247.95 165.43 244.336 160.612 241.927C160.612 244.336 160.612 243.734 160.612 243.131C160.612 238.915 160.612 234.699 160.612 230.483C160.612 229.881 160.612 229.278 161.816 229.278C164.226 229.278 166.635 229.278 169.044 228.676C175.067 227.471 181.09 226.869 186.511 225.664C191.932 224.46 196.75 222.653 201.569 220.846C202.171 220.846 202.774 220.846 202.774 222.05C203.376 224.46 204.58 227.471 205.785 229.278C206.99 231.085 206.99 231.687 205.785 232.892C203.376 235.904 202.171 240.12 203.376 243.734C205.785 251.564 213.013 255.178 220.843 252.769C227.468 250.359 231.082 241.927 228.071 235.301C225.661 229.881 221.445 227.471 216.024 227.471C215.422 227.471 214.82 227.471 214.217 226.267C213.615 223.857 212.41 221.448 211.206 219.039C210.001 217.232 210.001 216.63 211.206 216.027C221.445 211.209 230.48 204.583 238.912 196.753C247.947 187.718 255.777 178.081 261.8 166.637C263.607 163.023 263.607 159.409 261.8 155.193C258.186 147.363 252.765 140.135 247.344 133.51C245.537 131.101 243.731 129.294 241.321 127.487M216.627 60.6296C219.638 60.6296 222.65 63.0388 222.047 66.6527C222.047 69.6643 219.638 72.6759 216.627 72.6759C213.615 72.6759 210.604 70.2666 210.604 66.6527C211.206 63.0388 213.615 60.6296 216.627 60.6296ZM94.9602 72.6759C91.9486 72.6759 89.5394 70.2666 89.5394 66.6527C89.5394 63.6411 92.5509 60.6296 95.5625 60.6296C98.574 60.6296 101.586 63.0388 101.586 66.6527C100.983 69.6643 98.574 72.6759 94.9602 72.6759ZM46.1731 112.429C42.5593 112.429 40.15 110.02 40.15 106.406C40.15 103.394 42.5593 100.985 46.1731 100.985C49.1847 100.985 52.1962 103.394 52.1962 107.008C51.5939 110.02 49.1847 112.429 46.1731 112.429ZM95.5625 245.541C93.1532 245.541 91.3463 243.734 91.3463 241.325C91.3463 238.915 93.1532 237.108 95.5625 237.108C97.9717 237.108 99.7786 238.915 99.7786 241.325C99.1763 243.131 97.3694 245.541 95.5625 245.541ZM216.627 237.108C219.036 237.108 220.843 238.915 220.843 241.325C220.843 243.734 219.036 245.541 216.627 245.541C214.217 245.541 212.41 243.734 212.41 241.325C212.41 238.915 214.217 237.108 216.627 237.108ZM150.373 55.2087C150.373 52.1971 153.384 49.1855 156.396 49.1855C159.407 49.1855 162.419 51.5948 162.419 55.2087C162.419 58.2203 159.407 61.2319 156.396 61.2319C152.782 61.2319 150.373 58.2203 150.373 55.2087ZM155.793 260.599C153.384 260.599 151.577 258.792 151.577 256.382C151.577 253.973 153.384 252.166 155.793 252.166C158.203 252.166 160.01 253.973 160.01 256.382C160.01 258.792 158.203 260.599 155.793 260.599ZM247.947 149.17C250.356 152.182 252.163 155.796 253.97 159.409C254.572 160.614 254.572 162.421 253.97 164.228C249.151 173.865 242.526 182.298 234.696 190.128C223.854 200.367 211.808 208.197 197.955 213.618C191.932 216.027 185.909 217.834 179.283 219.039C170.851 220.846 162.419 222.05 153.986 221.448C148.566 221.448 143.145 220.243 137.122 219.641C131.099 219.039 125.678 217.834 120.257 216.027C109.416 212.413 99.1763 207.595 89.5394 200.969C82.3117 195.548 75.6863 189.525 69.6632 182.9C64.8447 177.479 60.6285 170.853 57.0147 164.228C56.4124 162.421 56.4124 161.216 57.0147 159.409C61.2308 151.579 66.0493 144.352 72.0724 138.328C82.3117 126.884 94.3578 118.452 108.211 112.429C114.234 110.02 120.257 108.213 126.28 106.406C135.917 103.996 145.554 102.792 156.998 102.792C159.407 102.792 164.226 103.394 168.442 103.996C172.056 104.599 175.067 104.599 178.681 105.803C182.295 106.406 185.909 107.61 189.523 108.815C195.546 110.622 201.569 113.031 207.592 116.043C225.059 122.668 237.707 134.112 247.947 149.17ZM265.414 112.429C262.402 112.429 259.993 109.417 259.993 106.406C259.993 103.394 263.004 100.985 266.016 100.985C269.63 100.985 271.437 103.394 271.437 107.008C271.437 110.02 269.028 112.429 265.414 112.429Z" fill="white" fill-opacity="0.05"/>
<path d="M236.503 161.216C235.901 158.807 234.094 157.602 232.287 157.602C229.877 157.602 227.468 157.602 225.059 157.602C221.445 157.602 217.831 157.602 214.217 157.602C209.399 157.602 204.58 157.602 199.762 157.602C198.557 157.602 197.955 157 197.955 156.397C197.955 154.59 197.353 152.784 197.353 151.579C196.148 146.158 193.739 141.34 190.125 136.521C182.897 127.486 173.863 122.065 162.419 120.258C155.793 119.054 149.77 119.656 143.145 122.065C134.11 125.077 126.883 130.498 121.462 138.328C117.246 143.749 115.439 150.374 114.234 157C114.234 157.602 113.632 158.204 113.03 158.204C107.006 158.204 101.586 158.204 95.5625 158.204C90.7441 158.204 85.3233 158.204 80.5048 158.204C78.6979 158.204 76.891 158.807 76.2886 160.614C75.084 163.625 76.891 166.637 80.5048 166.637C84.1187 166.637 87.1302 166.637 90.7441 166.637C94.3579 166.637 97.9718 166.637 101.586 166.637C105.802 166.637 110.018 166.637 113.632 166.637C114.234 166.637 114.836 166.637 114.836 167.841C115.439 170.251 115.439 172.058 116.041 174.467C117.848 180.49 120.86 185.309 124.473 190.127C132.303 198.56 141.94 203.98 153.384 204.583C160.01 205.185 166.635 203.98 173.26 201.571C181.09 197.957 187.716 193.139 192.534 185.911C196.148 180.49 198.557 174.467 199.16 168.444C199.16 167.239 199.762 167.239 200.967 167.239C206.387 167.239 211.808 167.239 217.229 167.239C217.831 167.239 218.434 167.239 219.036 167.239C223.854 167.239 228.673 167.239 233.491 167.239C234.094 167.239 234.696 167.239 235.298 166.637C235.901 164.83 237.105 163.023 236.503 161.216ZM155.793 184.706C143.145 184.706 132.906 174.467 132.906 161.818C132.906 149.17 143.145 138.93 155.793 138.93C168.442 138.93 178.681 149.17 178.681 161.818C179.284 174.467 168.442 184.706 155.793 184.706Z" fill="white" fill-opacity="0.05"/>
<path d="M163.623 161.216C167.237 160.012 167.84 157.602 167.84 154.591C167.84 152.784 167.237 147.363 158.805 147.363V142.544H155.793V146.761H153.384V142.544H150.373V146.761H142.543V149.772H146.759V172.66H142.543V175.672H150.373V179.888H153.384V175.672H155.793V179.888H158.805V175.672H160.01C168.442 175.672 169.044 170.251 169.044 167.842C169.647 166.035 169.044 163.023 163.623 161.216ZM161.214 155.193C161.214 158.205 158.805 158.205 156.998 158.205H153.384V152.181H156.396C158.203 152.181 161.214 152.181 161.214 155.193ZM156.998 170.853H153.384V164.228H156.998C158.805 164.228 162.419 164.228 162.419 167.842C163.021 170.853 158.805 170.853 156.998 170.853Z" fill="white" fill-opacity="0.05"/>
</svg>
