<svg width="54" height="54" viewBox="0 0 54 54" fill="none" xmlns="http://www.w3.org/2000/svg">
<path d="M26.9 51.8C40.7071 51.8 51.9 40.6072 51.9 26.8C51.9 12.9929 40.7071 1.80005 26.9 1.80005C13.0929 1.80005 1.90002 12.9929 1.90002 26.8C1.90002 40.6072 13.0929 51.8 26.9 51.8Z" stroke="white" stroke-miterlimit="10"/>
<path d="M26.9 52.8C12.6 52.8 1 41.2 1 26.9C1 12.6 12.6 1 26.9 1C41.2 1 52.8 12.6 52.8 26.9C52.9 41.1 41.2 52.8 26.9 52.8Z" stroke="white" stroke-miterlimit="10"/>
<path d="M42.6 21C43.3 20.4 43.4 20.5 43.7 20.6C44.7 21.2 46.1 21 46.8 20.1C47 19.8 47.4 19.3 47.4 18.9C47.5 18.6 47.5 18.4 47.4 18.1C47.4 18 47.2 17.7 47.2 17.6C46.6 16.3 45 15.7 43.7 16.4C42.9 16.9 42.3 17.9 42.6 19.1C42.6 19.2 42.6 19.3 42.5 19.3C41.7 19.8 40.8 20.3 40 20.8C39.8 20.9 39.7 20.9 39.6 20.8C39.2 20.5 38.8 20.2 38.4 19.9C37.2 19.1 36 18.4 34.6 17.9C34.5 17.8 34.5 17.8 34.5 17.7C35.1 16.6 35.6 15.5 36.2 14.4C36.2 14.3 36.3 14.3 36.4 14.3C36.7 14.3 37.1 14.3 37.4 14.2C38.8 13.8 39.5 12.1 38.8 10.8C38.2 9.60004 36.9 9.10004 35.7 9.60004C34.9 9.90004 34.4 10.6 34.2 11.4C34.1 12.2 34.2 12.9 34.8 13.5C34.9 13.6 34.9 13.7 34.8 13.8C34.6 14.2 34.3 14.7 34.1 15.2C33.7 15.9 33.4 16.6 33 17.3C32.9 17.4 32.9 17.4 32.8 17.4C32.7 17.4 32.6 17.3 32.5 17.3C32.1 17.2 31.3 17 30.8 16.9C30.3 16.8 29.8 16.7 29.2 16.6C28.6 16.5 28 16.5 27.3 16.4C27.5 16.4 27.5 16.3 27.5 16.2C27.5 14.9 27.5 13.7 27.5 12.4C27.5 12.3 27.6 12.3 27.6 12.2C27.8 12.1 28 12 28.2 11.8C29.1 11.1 29.4 9.80004 28.8 8.70004C28.3 7.80004 27 7.20004 25.9 7.60004C24.4 8.10004 23.7 10 24.8 11.4C25.1 11.8 25.4 12 25.8 12.2C26 12.3 25.9 12.3 25.9 12.7C25.9 14 25.9 14.5 25.9 15.9C25.9 16.2 25.9 16.3 25.7 16.3C25.5 16.3 25.3 16.3 25.1 16.3C24.5 16.4 23.9 16.4 23.4 16.5C22.9 16.6 22.5 16.7 22 16.8C21.4 16.9 20.9 17.1 20.3 17.2C20.2 17.2 20.1 17.2 20.1 17.1C19.5 16 18.9 14.8 18.3 13.7C18.2 13.6 18.3 13.5 18.3 13.4C18.9 12.7 19.1 11.9 18.8 11C18.4 9.70004 17 9.00004 15.6 9.50004C14.4 10 13.7 11.4 14.2 12.6C14.6 13.7 15.6 14.3 16.7 14.2C16.8 14.2 16.9 14.3 16.9 14.3C17.5 15.4 18 16.5 18.6 17.6C18.7 17.7 18.6 17.8 18.5 17.8C17.9 18 17.4 18.3 16.9 18.5C15.7 19.1 14.6 19.9 13.5 20.7C13.4 20.8 13.3 20.8 13.2 20.7C12.4 20.2 11.5 19.7 10.7 19.2C10.6 19.1 10.6 19.1 10.6 19C10.7 18.6 10.7 18.1 10.6 17.7C10.3 16.7 9.59999 16.1 8.59999 16C7.69999 15.9 6.69999 16.3 6.19999 17.1C5.89999 17.6 5.79999 18.3 5.89999 18.9C5.89999 19 5.89999 19 5.89999 19.1C5.99999 19.3 6.09999 19.6 6.29999 19.8C6.79999 20.6 7.59999 20.9 8.59999 20.8C8.89999 20.8 9.29999 20.6 9.59999 20.4C9.69999 20.4 9.79999 20.4 9.89999 20.4C10.7 20.8 11.4 21.3 12.2 21.7L12.3 21.8C12 22.2 11.7 22.5 11.4 22.8C10.5 23.9 9.69999 25 8.99999 26.3C8.59999 27.1 8.69999 27.8 9.09999 28.5C10.4 31 12.2 33 14.4 34.7C15.3 35.4 16.3 36 17.3 36.5C17.4 36.6 17.5 36.6 17.4 36.7C17.2 37.2 17 37.7 16.8 38.2C16.8 38.3 16.7 38.3 16.6 38.3C15.6 38.3 14.8 38.9 14.5 39.9C14.2 40.8 14.6 41.9 15.6 42.4C16.8 43 18.3 42.4 18.6 41.1C18.8 40.4 18.7 39.7 18.2 39.1C18.1 38.9 18.1 38.8 18.2 38.5C18.4 38.1 18.6 37.7 18.7 37.3C18.8 37 18.8 37 19 37.1C19.7 37.4 20.4 37.6 21.1 37.8C22.2 38 23.3 38.2 24.4 38.4C24.8 38.5 25.2 38.5 25.6 38.5C25.8 38.5 25.8 38.6 25.8 38.8C25.8 39.7 25.8 40 25.8 40.6C25.8 40.8 25.8 40.9 25.7 41C24.9 41.4 24.5 42 24.5 42.9C24.5 43.8 24.9 44.4 25.7 44.9C25.7 44.9 25.8 44.9 25.8 45H25.9C26.4 45.1 26.9 45.1 27.4 45C27.5 45 27.6 45 27.6 44.9C28.4 44.5 28.8 43.8 28.8 42.9C28.8 42 28.3 41.4 27.5 41C27.5 41.4 27.5 41.3 27.5 41.2C27.5 40.5 27.5 39.8 27.5 39.1C27.5 39 27.5 38.9 27.7 38.9C28.1 38.9 28.5 38.9 28.9 38.8C29.9 38.6 30.9 38.5 31.8 38.3C32.7 38.1 33.5 37.8 34.3 37.5C34.4 37.5 34.5 37.5 34.5 37.7C34.6 38.1 34.8 38.6 35 38.9C35.2 39.2 35.2 39.3 35 39.5C34.6 40 34.4 40.7 34.6 41.3C35 42.6 36.2 43.2 37.5 42.8C38.6 42.4 39.2 41 38.7 39.9C38.3 39 37.6 38.6 36.7 38.6C36.6 38.6 36.5 38.6 36.4 38.4C36.3 38 36.1 37.6 35.9 37.2C35.7 36.9 35.7 36.8 35.9 36.7C37.6 35.9 39.1 34.8 40.5 33.5C42 32 43.3 30.4 44.3 28.5C44.6 27.9 44.6 27.3 44.3 26.6C43.7 25.3 42.8 24.1 41.9 23C41.6 22.6 41.3 22.3 40.9 22M36.8 10.9C37.3 10.9 37.8 11.3 37.7 11.9C37.7 12.4 37.3 12.9 36.8 12.9C36.3 12.9 35.8 12.5 35.8 11.9C35.9 11.3 36.3 10.9 36.8 10.9ZM16.6 12.9C16.1 12.9 15.7 12.5 15.7 11.9C15.7 11.4 16.2 10.9 16.7 10.9C17.2 10.9 17.7 11.3 17.7 11.9C17.6 12.4 17.2 12.9 16.6 12.9ZM8.49999 19.5C7.89999 19.5 7.49999 19.1 7.49999 18.5C7.49999 18 7.89999 17.6 8.49999 17.6C8.99999 17.6 9.49999 18 9.49999 18.6C9.39999 19.1 8.99999 19.5 8.49999 19.5ZM16.7 41.6C16.3 41.6 16 41.3 16 40.9C16 40.5 16.3 40.2 16.7 40.2C17.1 40.2 17.4 40.5 17.4 40.9C17.3 41.2 17 41.6 16.7 41.6ZM36.8 40.2C37.2 40.2 37.5 40.5 37.5 40.9C37.5 41.3 37.2 41.6 36.8 41.6C36.4 41.6 36.1 41.3 36.1 40.9C36.1 40.5 36.4 40.2 36.8 40.2ZM25.8 10C25.8 9.50004 26.3 9.00004 26.8 9.00004C27.3 9.00004 27.8 9.40004 27.8 10C27.8 10.5 27.3 11 26.8 11C26.2 11 25.8 10.5 25.8 10ZM26.7 44.1C26.3 44.1 26 43.8 26 43.4C26 43 26.3 42.7 26.7 42.7C27.1 42.7 27.4 43 27.4 43.4C27.4 43.8 27.1 44.1 26.7 44.1ZM42 25.6C42.4 26.1 42.7 26.7 43 27.3C43.1 27.5 43.1 27.8 43 28.1C42.2 29.7 41.1 31.1 39.8 32.4C38 34.1 36 35.4 33.7 36.3C32.7 36.7 31.7 37 30.6 37.2C29.2 37.5 27.8 37.7 26.4 37.6C25.5 37.6 24.6 37.4 23.6 37.3C22.6 37.2 21.7 37 20.8 36.7C19 36.1 17.3 35.3 15.7 34.2C14.5 33.3 13.4 32.3 12.4 31.2C11.6 30.3 10.9 29.2 10.3 28.1C10.2 27.8 10.2 27.6 10.3 27.3C11 26 11.8 24.8 12.8 23.8C14.5 21.9 16.5 20.5 18.8 19.5C19.8 19.1 20.8 18.8 21.8 18.5C23.4 18.1 25 17.9 26.9 17.9C27.3 17.9 28.1 18 28.8 18.1C29.4 18.2 29.9 18.2 30.5 18.4C31.1 18.5 31.7 18.7 32.3 18.9C33.3 19.2 34.3 19.6 35.3 20.1C38.2 21.2 40.3 23.1 42 25.6ZM44.9 19.5C44.4 19.5 44 19 44 18.5C44 18 44.5 17.6 45 17.6C45.6 17.6 45.9 18 45.9 18.6C45.9 19.1 45.5 19.5 44.9 19.5Z" fill="white"/>
<path d="M40.1 27.6C40 27.2 39.7 27 39.4 27C39 27 38.6 27 38.2 27C37.6 27 37 27 36.4 27C35.6 27 34.8 27 34 27C33.8 27 33.7 26.9 33.7 26.8C33.7 26.5 33.6 26.2 33.6 26C33.4 25.1 33 24.3 32.4 23.5C31.2 22 29.7 21.1 27.8 20.8C26.7 20.6 25.7 20.7 24.6 21.1C23.1 21.6 21.9 22.5 21 23.8C20.3 24.7 20 25.8 19.8 26.9C19.8 27 19.7 27.1 19.6 27.1C18.6 27.1 17.7 27.1 16.7 27.1C15.9 27.1 15 27.1 14.2 27.1C13.9 27.1 13.6 27.2 13.5 27.5C13.3 28 13.6 28.5 14.2 28.5C14.8 28.5 15.3 28.5 15.9 28.5C16.5 28.5 17.1 28.5 17.7 28.5C18.4 28.5 19.1 28.5 19.7 28.5C19.8 28.5 19.9 28.5 19.9 28.7C20 29.1 20 29.4 20.1 29.8C20.4 30.8 20.9 31.6 21.5 32.4C22.8 33.8 24.4 34.7 26.3 34.8C27.4 34.9 28.5 34.7 29.6 34.3C30.9 33.7 32 32.9 32.8 31.7C33.4 30.8 33.8 29.8 33.9 28.8C33.9 28.6 34 28.6 34.2 28.6C35.1 28.6 36 28.6 36.9 28.6C37 28.6 37.1 28.6 37.2 28.6C38 28.6 38.8 28.6 39.6 28.6C39.7 28.6 39.8 28.6 39.9 28.5C40 28.2 40.2 27.9 40.1 27.6ZM26.7 31.5C24.6 31.5 22.9 29.8 22.9 27.7C22.9 25.6 24.6 23.9 26.7 23.9C28.8 23.9 30.5 25.6 30.5 27.7C30.6 29.8 28.8 31.5 26.7 31.5Z" fill="white"/>
<path d="M28 27.6C28.6 27.4 28.7 27 28.7 26.5C28.7 26.2 28.6 25.3 27.2 25.3V24.5H26.7V25.2H26.3V24.5H25.8V25.2H24.5V25.7H25.2V29.5H24.5V30H25.8V30.7H26.3V30H26.7V30.7H27.2V30H27.4C28.8 30 28.9 29.1 28.9 28.7C29 28.4 28.9 27.9 28 27.6ZM27.6 26.6C27.6 27.1 27.2 27.1 26.9 27.1H26.3V26.1H26.8C27.1 26.1 27.6 26.1 27.6 26.6ZM26.9 29.2H26.3V28.1H26.9C27.2 28.1 27.8 28.1 27.8 28.7C27.9 29.2 27.2 29.2 26.9 29.2Z" fill="white"/>
</svg>
