<svg width="796" height="780" viewBox="0 0 796 780" fill="none" xmlns="http://www.w3.org/2000/svg">
<path d="M483.26 743.273C524.158 779.553 572.92 783.497 625.616 776.398C580.785 694.374 535.955 614.715 491.125 533.479C494.271 532.69 495.844 532.69 498.203 532.69C621.683 514.55 699.547 393.879 664.941 275.574C638.986 187.24 559.55 128.876 462.811 128.876C311.016 128.876 160.009 128.876 8.21454 128.876H0.349555C0.349555 130.454 -0.436944 131.242 0.349555 132.031C1.13605 135.186 1.92255 137.552 3.49555 140.707C22.3715 188.817 57.7639 221.154 105.74 238.505C113.605 241.66 122.257 242.449 130.908 242.449C244.164 242.449 358.206 242.449 471.462 242.449C528.877 242.449 571.347 295.292 559.55 351.289C550.898 393.091 513.147 421.484 467.53 422.272C419.553 422.272 370.79 422.272 322.814 422.272H308.657C311.803 427.793 313.376 431.737 315.735 435.68C368.431 534.268 422.699 634.433 476.968 733.809C478.541 736.964 480.114 740.907 483.26 743.273Z" fill="white" fill-opacity="0.03"/>
<path d="M794.953 343.591C783.16 185.62 673.092 57.663 529.218 15.0107C387.703 -26.8518 245.401 23.6991 166.781 106.634C184.078 106.634 199.015 107.424 214.739 106.634C221.815 105.844 229.677 104.265 235.18 100.315C309.083 49.7644 390.061 30.8078 478.902 45.0253C721.05 86.0979 839.766 366.497 691.961 571.07C664.444 608.984 629.852 639.788 588.183 663.484C594.473 675.332 600.762 686.39 607.052 697.448C704.54 645.317 807.532 518.94 794.953 343.591Z" fill="white" fill-opacity="0.03"/>
</svg>
