<svg width="143" height="34" viewBox="0 0 143 34" fill="none" xmlns="http://www.w3.org/2000/svg">
<g clip-path="url(#clip0_6_3)">
<path d="M34.4668 14.9368C33.957 8.11636 29.1982 2.59179 22.9779 0.750263C16.8595 -1.05716 10.7071 1.12539 7.30804 4.70613C8.05585 4.70613 8.70167 4.74023 9.38149 4.70613C9.68741 4.67203 10.0273 4.60382 10.2653 4.43331C13.4604 2.25076 16.9615 1.43231 20.8025 2.04615C31.2717 3.81947 36.4043 15.9258 30.014 24.7583C28.8243 26.3952 27.3287 27.7252 25.5272 28.7483C25.7991 29.2598 26.0711 29.7372 26.343 30.2147C30.5579 27.9639 35.0107 22.5075 34.4668 14.9368Z" fill="white"/>
<path d="M4.82669 11.3902C4.35081 11.2197 3.84095 11.015 3.33108 10.8104C-0.611867 21.7232 8.08982 33.2838 19.9187 32.2267C19.6467 31.7492 19.4428 31.3059 19.1709 30.8626C19.0689 30.7262 18.865 30.5898 18.695 30.5898C16.2816 30.5898 14.0382 30.0782 11.8968 28.9529C6.59422 26.2588 3.46705 20.3591 4.21485 14.4594C4.35081 13.4704 4.62274 12.4473 4.82669 11.3902Z" fill="white"/>
<path d="M21.6862 23.1896C24.2696 22.8145 26.547 21.3481 27.9746 19.1314C29.3342 16.983 29.7081 14.3571 28.9943 11.9358C27.8386 8.04815 24.4055 5.52458 20.1567 5.49048C15.5679 5.49048 10.8771 5.49048 6.35632 5.49048C4.41883 5.49048 2.44736 5.49048 0.50987 5.49048H0.0339966V5.59279C0.0339966 5.62689 0.0339966 5.62689 0.0339966 5.62689C0.0339966 5.66099 0.0339966 5.69509 0.0339966 5.7633C0.0679876 5.89971 0.135969 6.03612 0.16996 6.13842C0.985744 8.18456 2.48135 9.61686 4.62278 10.4353C4.96269 10.5717 5.33659 10.6058 5.74448 10.6058C8.53174 10.6058 11.387 10.6058 14.1402 10.6058C16.2477 10.6058 18.3551 10.6058 20.4626 10.6058C21.6183 10.6058 22.706 11.1174 23.4198 12.004C24.1336 12.8907 24.4055 14.0502 24.1676 15.1755C23.7937 16.9489 22.2301 18.1424 20.2926 18.1424C18.831 18.1424 17.3694 18.1424 15.9418 18.1424C15.2959 18.1424 14.6841 18.1424 14.0383 18.1424H13.2905L13.3585 18.2788C13.3924 18.347 13.4264 18.4494 13.4604 18.5176C13.5284 18.654 13.5964 18.7563 13.6304 18.8586C15.9758 23.1896 18.3211 27.4865 20.6665 31.8175C20.7345 31.9539 20.8365 32.1244 20.9724 32.2267C21.8222 32.9769 23.1139 33.7954 25.5272 33.7954C26.0371 33.7954 26.5809 33.7613 27.2268 33.6931L27.3627 33.659L21.5163 23.2237C21.5843 23.2237 21.6183 23.1896 21.6862 23.1896ZM26.9888 33.5567C25.1873 33.7613 22.9439 33.7954 21.0744 32.1244C20.9724 32.0221 20.9045 31.8857 20.8365 31.7493C18.4911 27.4183 16.1457 23.1214 13.8003 18.7904C13.7324 18.6881 13.6984 18.5858 13.6304 18.4494C13.6304 18.4153 13.5964 18.3812 13.5964 18.3812H14.0383C14.6841 18.3812 15.2959 18.3812 15.9418 18.3812C17.3694 18.3812 18.831 18.3812 20.2926 18.3812C22.3321 18.3812 23.9976 17.1194 24.3715 15.2437C24.6435 14.0502 24.3375 12.8225 23.5897 11.9017C22.8419 10.9468 21.6862 10.4353 20.4626 10.4012C18.3551 10.4012 16.2477 10.4012 14.1402 10.4012C11.387 10.4012 8.53174 10.4012 5.74448 10.4012C5.37058 10.4012 4.99668 10.333 4.69076 10.2307C2.58332 9.44635 1.12171 8.04815 0.339915 6.07022C0.305924 5.96791 0.271933 5.8656 0.237942 5.72919H0.50987C2.44736 5.72919 4.41883 5.72919 6.35632 5.72919C10.8771 5.72919 15.5679 5.72919 20.1567 5.72919C24.3035 5.72919 27.6687 8.18456 28.7904 12.004C29.4702 14.3912 29.1303 16.9489 27.7706 19.0291C26.411 21.1775 24.1676 22.6098 21.6523 22.985C21.6183 22.985 21.5503 22.985 21.4823 23.0191L21.2104 23.0532L26.9888 33.5567Z" fill="white"/>
<path d="M34.5688 14.9368C34.059 8.28685 29.4362 2.55767 23.0119 0.647937C16.5536 -1.26179 10.4352 1.26178 7.24008 4.60381L7.07013 4.77432H7.30807C7.51201 4.77432 7.74995 4.77432 7.95389 4.77432C8.46376 4.77432 8.90564 4.77432 9.38152 4.74021C9.72143 4.70611 10.0613 4.60381 10.2993 4.4674C13.5284 2.31895 17.0295 1.5346 20.7345 2.14844C25.6632 2.96689 29.7421 6.24072 31.6116 10.8445C33.4811 15.4483 32.8353 20.5978 29.8781 24.6901C28.7224 26.2929 27.2608 27.5888 25.4253 28.68L25.3233 28.7482L26.241 30.4193L26.343 30.3851C28.6884 29.1575 30.7618 27.1454 32.2574 24.6901C34.025 21.7573 34.8068 18.3811 34.5688 14.9368Z" fill="white"/>
<path d="M19.7828 31.7833C19.6128 31.4423 19.4429 31.1354 19.2389 30.8285C19.1369 30.658 18.865 30.5216 18.695 30.5216C16.2137 30.5216 14.0043 29.9759 11.9308 28.9187C9.34753 27.5888 7.24009 25.5085 5.88045 22.9167C4.48683 20.2909 3.94297 17.3922 4.31687 14.5276C4.41884 13.8114 4.55481 13.1294 4.72476 12.4132C4.79274 12.0722 4.86073 11.7653 4.92871 11.4243L4.9627 11.322L3.29714 10.674L3.26315 10.7763C1.39365 15.9599 2.27741 21.6891 5.64252 26.0883C8.7357 30.1123 13.4604 32.4313 18.4571 32.4313C18.933 32.4313 19.4429 32.3972 19.9187 32.3631H20.0887L20.0207 32.2267C19.9187 32.0562 19.8507 31.9197 19.7828 31.7833Z" fill="white"/>
<path d="M21.0064 32.2267C22.7739 33.7954 24.8814 33.9659 27.1588 33.659C25.2213 30.1123 23.2838 26.668 21.3463 23.1555C21.4823 23.1214 21.5503 23.1214 21.6522 23.1214C26.9888 22.337 30.3539 17.1194 28.8583 12.004C27.7366 8.18455 24.3035 5.66098 20.1226 5.66098C13.5624 5.66098 7.03612 5.66098 0.475866 5.66098H0.135957C0.135957 5.72918 0.101966 5.76329 0.135957 5.79739C0.169948 5.9338 0.203939 6.03611 0.271921 6.17251C1.0877 8.25276 2.6173 9.65095 4.69075 10.4012C5.03066 10.5376 5.40456 10.5717 5.77846 10.5717C10.6732 10.5717 15.6018 10.5717 20.4965 10.5717C22.9779 10.5717 24.8134 12.8566 24.3035 15.2778C23.9296 17.0853 22.2981 18.3129 20.3266 18.347C18.2531 18.347 16.1457 18.347 14.0723 18.347H13.4604C13.5964 18.5858 13.6644 18.7563 13.7663 18.9268C16.0437 23.1896 18.3891 27.5206 20.7345 31.8175C20.8025 31.9539 20.8704 32.1244 21.0064 32.2267Z" fill="white"/>
<path d="M34.4668 14.9368C33.957 8.11636 29.1982 2.59179 22.9779 0.750263C16.8595 -1.05716 10.7071 1.12539 7.30804 4.70613C8.05585 4.70613 8.70167 4.74023 9.38149 4.70613C9.68741 4.67203 10.0273 4.60382 10.2653 4.43331C13.4604 2.25076 16.9615 1.43231 20.8025 2.04615C31.2717 3.81947 36.4043 15.9258 30.014 24.7583C28.8243 26.3952 27.3287 27.7252 25.5272 28.7483C25.7991 29.2598 26.0711 29.7372 26.343 30.2147C30.5579 27.9639 35.0107 22.5075 34.4668 14.9368Z" fill="white"/>
<path d="M4.82669 11.3902C4.35081 11.2197 3.84095 11.015 3.33108 10.8104C-0.611867 21.7232 8.08982 33.2838 19.9187 32.2267C19.6467 31.7492 19.4428 31.3059 19.1709 30.8626C19.0689 30.7262 18.865 30.5898 18.695 30.5898C16.2816 30.5898 14.0382 30.0782 11.8968 28.9529C6.59422 26.2588 3.46705 20.3591 4.21485 14.4594C4.35081 13.4704 4.62274 12.4473 4.82669 11.3902Z" fill="white"/>
<path d="M50.1027 10.8104C50.6125 10.2307 50.9524 9.58276 51.1564 8.86661C51.3603 8.15046 51.4623 7.40021 51.4623 6.68406C51.4623 5.7292 51.2923 4.91074 50.9864 4.1946C50.6465 3.47845 50.2046 2.86461 49.5928 2.35307C48.981 1.84154 48.3011 1.46641 47.4514 1.22769C46.6356 0.954876 45.7178 0.85257 44.7661 0.85257H39.7694V19.4042H42.4887V12.7543H45.208C45.3779 12.7543 45.5139 12.7543 45.6498 12.7202L49.8987 19.3701H53.0599L48.4711 12.0722C49.1169 11.7312 49.6948 11.322 50.1027 10.8104ZM42.4547 3.44434H45.2759C45.9218 3.44434 46.4656 3.54665 46.9075 3.75127C47.3494 3.95588 47.6893 4.2628 47.9612 4.60382C48.2332 4.94485 48.4031 5.31997 48.5391 5.6951C48.6411 6.07022 48.709 6.44535 48.709 6.78637C48.709 7.12739 48.6411 7.50252 48.5391 7.87764C48.4371 8.25277 48.2332 8.62789 47.9612 8.96892C47.6893 9.30994 47.3154 9.58276 46.8735 9.78737C46.3976 9.99199 45.8198 10.0943 45.14 10.0943H42.4547V3.44434Z" fill="white"/>
<path d="M61.0138 11.3561H69.3756V8.73019H61.0138V3.44433H70.3953V0.818451H58.2945V19.3701H70.7692V16.7442H61.0138V11.3561Z" fill="white"/>
<path d="M85.1474 13.7091L80.0487 0.886658H76.7856L85.0114 20.2909L93.2372 0.886658H90.0421L85.1474 13.7091Z" fill="white"/>
<path d="M101.531 0.818451H98.8118V19.3701H101.531V0.818451Z" fill="white"/>
<path d="M121.008 0.886658L116.113 13.7091L111.014 0.886658H107.785L116.011 20.2909L124.237 0.886658H121.008Z" fill="white"/>
<path d="M133.211 16.7442V11.3561H141.606V8.73019H133.211V3.44433H142.626V0.818451H130.525V19.3701H143V16.7442H133.211Z" fill="white"/>
<path d="M39.9054 33.6931H41.1631V30.1123H44.5282V28.9188H41.1631V26.3611H45.004V25.1675H39.9054V33.6931Z" fill="white"/>
<path d="M57.7846 25.1675H56.527V33.7272H57.7846V25.1675Z" fill="white"/>
<path d="M75.6639 31.1354L69.4775 24.8606H69.4435V33.6931H70.7012L70.6672 27.8275L76.8876 34V25.1675H75.6639V31.1354Z" fill="white"/>
<path d="M90.178 24.7924L86.405 33.6931H87.6627L90.144 27.5888L92.5574 33.6931H93.985L90.246 24.7924H90.178Z" fill="white"/>
<path d="M109.213 31.1354L103.027 24.8606H102.993V33.6931H104.25L104.216 27.8275L110.437 34V25.1675H109.213V31.1354Z" fill="white"/>
<path d="M124.645 32.3631C124.305 32.4995 123.931 32.5677 123.489 32.5677C123.013 32.5677 122.605 32.4995 122.266 32.329C121.892 32.1585 121.586 31.9539 121.314 31.6811C121.042 31.4082 120.838 31.0672 120.702 30.658C120.566 30.2829 120.498 29.8395 120.498 29.4303C120.498 28.987 120.566 28.5778 120.736 28.1685C120.906 27.7934 121.11 27.4524 121.382 27.1455C121.654 26.8385 121.96 26.6339 122.333 26.4634C122.673 26.2929 123.047 26.2247 123.455 26.2247C123.863 26.2247 124.237 26.2929 124.577 26.4293C124.917 26.5657 125.189 26.7362 125.427 26.8726L125.937 25.6791C125.631 25.4744 125.291 25.338 124.849 25.2016C124.441 25.0652 123.965 24.997 123.421 24.997C122.809 24.997 122.232 25.0993 121.722 25.338C121.212 25.5426 120.77 25.8496 120.396 26.2588C120.022 26.668 119.716 27.1114 119.546 27.657C119.342 28.2026 119.24 28.7824 119.24 29.4303C119.24 30.01 119.342 30.5557 119.546 31.0672C119.75 31.5788 120.022 32.0221 120.396 32.4313C120.77 32.8405 121.212 33.1475 121.756 33.3521C122.299 33.5908 122.877 33.6931 123.557 33.6931C123.965 33.6931 124.339 33.659 124.645 33.5908C124.985 33.4885 125.257 33.3862 125.529 33.2839C125.767 33.1475 125.971 33.0452 126.106 32.9769L125.563 31.8516C125.257 32.0903 124.985 32.2608 124.645 32.3631Z" fill="white"/>
<path d="M137.459 30.01H141.334V28.7824H137.459V26.3611H141.81V25.1675H136.202V33.6931H141.946V32.4995H137.459V30.01Z" fill="white"/>
</g>
<defs>
<clipPath id="clip0_6_3">
<rect width="143" height="34" fill="white"/>
</clipPath>
</defs>
</svg>
