<svg width="52" height="52" viewBox="0 0 52 52" fill="none" xmlns="http://www.w3.org/2000/svg">
<g clip-path="url(#clip0_206_12)">
<path d="M25.9482 50.4495C39.4799 50.4495 50.4495 39.4799 50.4495 25.9482C50.4495 12.4165 39.4799 1.4469 25.9482 1.4469C12.4165 1.4469 1.44693 12.4165 1.44693 25.9482C1.44693 39.4799 12.4165 50.4495 25.9482 50.4495Z" stroke="white" stroke-miterlimit="10"/>
<path d="M25.9482 0.4823C39.9352 0.4823 51.4141 11.8648 51.4141 25.9482C51.4141 40.0316 39.9352 51.3177 25.9482 51.3177C11.9613 51.3177 0.4823 39.9352 0.4823 25.8518C0.4823 11.7683 11.8648 0.4823 25.9482 0.4823Z" stroke="white" stroke-miterlimit="10"/>
<path d="M24.019 40.1281C24.5013 39.3564 24.5013 38.5847 23.9225 37.9095C23.4402 37.2342 22.765 36.8484 21.8968 37.2342C21.9933 36.9449 22.0897 36.7519 22.1862 36.559C22.4756 35.8838 22.3791 35.305 21.8004 34.7262C21.511 34.4369 21.2216 34.2439 20.9322 34.051C20.3534 33.8581 19.8711 33.9545 19.3888 34.2439C18.81 34.6298 18.4242 35.1121 18.1348 35.6909C18.1348 35.7873 18.0384 35.7873 18.0384 35.8838C17.9419 35.4015 17.749 35.1121 17.4596 34.8227C17.0737 34.4369 16.5914 34.3404 16.0127 34.4369C15.7233 34.4369 15.5303 34.5333 15.241 34.7262C15.1445 34.7262 15.1445 34.7262 15.048 34.6298C14.4693 34.051 13.794 33.3758 13.2153 32.797C13.1188 32.7005 13.1188 32.7005 13.2153 32.5076C13.8905 31.2536 14.5657 30.0961 15.3374 28.8421C16.1091 27.4916 16.7843 26.2376 17.556 24.8871C17.6525 24.6942 17.749 24.6942 18.0384 24.6942C18.5207 24.7907 18.9065 24.8871 19.3888 25.0801C20.1605 25.3694 20.8357 25.6588 21.6074 25.9482C21.7039 26.0447 21.8004 26.0447 21.7039 26.2376C21.2216 26.9128 20.7393 27.6845 20.257 28.4562C20.064 28.7456 19.8711 29.035 19.6782 29.3244C19.4853 29.7102 19.3888 30.0961 19.4853 30.5784C19.5817 30.9642 19.9676 31.2536 20.3534 31.3501C21.0287 31.6395 21.7039 31.543 22.3791 31.2536C22.765 31.0607 23.1508 30.9642 23.5367 30.6748C23.8261 30.4819 24.1154 30.1925 24.3084 29.9032C24.6942 29.4208 25.1765 28.8421 25.5624 28.3598C26.0447 27.8775 26.7199 27.8775 27.2987 28.1668C28.4562 28.8421 29.7102 29.6138 30.8678 30.289C31.9289 30.9642 32.8935 31.6395 33.8581 32.3147C34.7262 32.8935 35.5944 33.5687 36.4626 34.1475C36.9449 34.5333 37.5236 34.8227 38.0059 35.2086C38.1989 35.305 38.3918 35.4979 38.4883 35.6909C38.6812 35.8838 38.6812 36.1732 38.5847 36.4626C38.4883 36.7519 38.3918 36.9449 38.1989 37.1378C37.9095 37.5236 37.5236 37.6201 37.0413 37.4272C36.0767 37.0413 35.305 36.559 34.4369 36.0767C33.4722 35.4979 32.4112 34.8227 31.4465 34.2439C31.3501 34.1475 31.1572 34.1475 31.0607 34.1475C30.8678 34.1475 30.6748 34.2439 30.6748 34.3404C30.5784 34.5333 30.6748 34.7262 30.8678 34.8227C31.543 35.2086 32.2182 35.5944 32.9899 35.9802C33.9546 36.559 35.0156 37.1378 35.9802 37.7166C36.1732 37.813 36.4626 38.2953 36.2696 38.7776C36.1732 39.067 35.9802 39.3564 35.7873 39.6458C35.5944 39.9352 35.2086 39.9352 34.9192 39.8387C34.4369 39.7423 34.1475 39.4529 33.7616 39.2599C32.8935 38.7776 31.9289 38.1989 31.0607 37.7166C30.6749 37.5236 30.3855 37.3307 29.9996 37.1378C29.8067 37.0413 29.6138 37.0413 29.4208 37.2342C29.3244 37.4272 29.3244 37.6201 29.6138 37.813C30.6749 38.4883 31.7359 38.9706 32.797 39.6458C33.0864 39.8387 33.3758 39.9352 33.7616 40.1281C33.8581 40.2246 33.9546 40.2246 33.9546 40.4175C33.9546 40.9963 33.5687 41.6715 32.9899 41.8644C32.797 41.9609 32.5076 41.9609 32.2182 41.8644C31.6395 41.6715 31.1572 41.4786 30.5784 41.1892C29.7102 40.8033 28.9385 40.4175 28.0704 40.0316C27.9739 40.0316 27.8775 40.0316 27.8775 40.1281C27.781 40.2246 27.6845 40.4175 27.8775 40.514C28.0704 40.6104 28.2633 40.7069 28.4562 40.8998C29.3244 41.3821 30.1925 41.8644 31.1572 42.4432C31.3501 42.5397 31.2536 42.6361 31.2536 42.7326C30.8678 43.3113 30.3855 43.6007 29.7102 43.6007C29.3244 43.6007 29.035 43.5043 28.6492 43.4078C27.9739 43.2149 27.3951 42.9255 26.8164 42.6361C26.7199 42.5397 26.6235 42.5397 26.7199 42.3467C26.9128 41.8644 27.0093 41.3821 26.7199 40.8998C25.9482 40.514 25.3694 39.9352 24.019 40.1281Z" fill="white"/>
<path d="M30.8678 24.3084C31.0607 24.4049 31.2536 24.4049 31.3501 24.5013C31.8324 24.5978 32.2183 24.7907 32.7006 24.8872C33.2793 25.0801 33.9546 25.273 34.6298 25.273C34.9192 25.273 35.1121 25.273 35.4015 25.273C35.7873 25.273 36.1732 25.1765 36.559 24.9836C36.752 25.273 36.8484 25.5624 37.0413 25.8518C37.4272 26.6235 37.9095 27.3952 38.2953 28.1669C38.8741 29.1315 39.3564 30.1926 39.9352 31.1572C40.1281 31.543 40.4175 32.0253 40.6104 32.4112C40.6104 32.5076 40.6104 32.6041 40.6104 32.7006C40.321 33.2793 39.9352 33.7616 39.4529 34.1475C39.067 34.4369 38.6812 34.6298 38.2953 34.8227H38.1024C37.4272 34.3404 36.752 33.8581 36.0767 33.3758C35.498 32.8935 34.8227 32.5076 34.1475 32.0253C33.3758 31.543 32.6041 30.9643 31.8324 30.4819C31.0607 29.9032 30.1926 29.4209 29.4209 28.8421C28.6492 28.3598 27.8775 27.8775 27.1058 27.4916C26.7199 27.2987 26.3341 27.2987 25.8518 27.2987C25.5624 27.3952 25.273 27.5881 25.0801 27.781C24.5013 28.3598 23.8261 29.035 23.2473 29.6138C22.765 30.0961 22.2827 30.3855 21.6074 30.5784C21.2216 30.6749 20.9322 30.7713 20.5464 30.6749C19.9676 30.5784 19.7747 30.1926 20.0641 29.7103C20.5464 28.9386 20.9322 28.1669 21.4145 27.4916C21.7039 27.0093 22.0898 26.527 22.4756 25.9482C22.5721 25.7553 22.765 25.5624 22.8615 25.4659C22.9579 25.3695 22.9579 25.273 22.8615 25.1765C22.5721 24.9836 22.3791 24.7907 22.0898 24.5978C21.8004 24.3084 21.4145 24.019 21.1251 23.7296C20.0641 22.6685 19.1959 21.511 18.6171 20.0641C18.3277 19.4853 18.1348 18.8101 17.9419 18.1348C17.749 17.5561 17.6525 16.9773 17.5561 16.3021C17.3631 15.241 17.3631 14.1799 17.3631 13.1188C17.3631 12.4436 17.4596 11.8648 17.5561 11.1896C17.6525 10.7073 17.749 10.225 17.8454 9.64619C17.8454 9.64619 17.9419 9.54973 18.0384 9.54973C18.4242 9.54973 18.8101 9.54973 19.1959 9.54973C19.7747 9.54973 20.257 9.45327 20.8358 9.35681C21.3181 9.26035 21.8968 9.16388 22.3791 8.97096C23.1508 8.77804 23.8261 8.39219 24.5013 8.00634C25.0801 7.6205 25.6588 7.23465 26.1412 6.75234C26.2376 6.65588 26.2376 6.65588 26.3341 6.75234C27.3952 7.71696 28.5527 8.39219 29.8067 8.8745C30.4819 9.06742 31.0607 9.26035 31.7359 9.35681C32.6041 9.54973 33.3758 9.54973 34.2439 9.54973C34.5333 9.54973 34.5333 9.54973 34.6298 9.83912C34.7263 10.225 34.7263 10.5143 34.8227 10.9002C34.8227 11.0931 34.9192 11.286 34.9192 11.479C34.9192 11.6719 35.0156 11.9613 35.0156 12.1542C35.0156 13.1188 35.2086 13.987 35.0156 14.9516C34.9192 15.3374 35.0156 15.7233 34.9192 16.1091C34.8227 16.5914 34.7263 17.0738 34.6298 17.5561C34.5333 18.0384 34.3404 18.5207 34.1475 19.0995C33.8581 19.8711 33.5687 20.5464 33.0864 21.3181C32.5076 22.2827 31.8324 23.1508 30.9642 24.019C31.0607 24.1155 30.9642 24.2119 30.8678 24.3084ZM33.9546 14.1799C33.9546 13.6011 33.9546 13.1188 33.8581 12.733C33.7616 12.2507 33.6652 11.6719 33.6652 11.1896C33.6652 11.0931 33.5687 10.9967 33.4723 10.9967C32.797 10.9002 32.1218 10.9002 31.543 10.8037C30.9642 10.7073 30.3855 10.6108 29.9032 10.4179C28.7456 10.032 27.5881 9.45327 26.6235 8.77804C26.3341 8.58511 26.3341 8.58511 26.1412 8.77804C26.1412 8.77804 26.0447 8.77804 26.0447 8.8745C25.273 9.45327 24.3084 9.93558 23.3438 10.3214C22.8615 10.5143 22.3791 10.6108 21.8968 10.8037C21.4145 10.9002 20.9322 10.9967 20.4499 11.0931C20.0641 11.1896 19.6782 11.1896 19.1959 11.1896C19.0994 11.1896 19.003 11.1896 19.003 11.3825C19.003 11.5754 18.9065 11.8648 18.9065 12.0577C18.8101 12.733 18.7136 13.4082 18.7136 14.1799C18.7136 15.241 18.8101 16.2056 19.003 17.1702C19.1959 17.8454 19.3888 18.5207 19.5817 19.0995C20.0641 20.3535 20.7393 21.511 21.6074 22.5721C22.2827 23.3438 23.0544 24.019 23.9225 24.5978C24.2119 24.7907 24.4048 24.8872 24.7907 24.8872C25.3695 24.7907 25.9482 24.7907 26.4305 24.6942C27.0093 24.5978 27.4916 24.5978 28.0704 24.5013C28.3598 24.5013 28.6492 24.5013 28.8421 24.4049C28.9385 24.4049 28.9385 24.4049 29.035 24.3084C29.3244 24.019 29.7102 23.8261 29.9996 23.5367C30.8678 22.765 31.6395 21.8968 32.2183 20.8358C32.797 19.8711 33.2793 18.8101 33.4723 17.749C33.6652 17.1702 33.6652 16.5914 33.7616 16.0127C33.9546 15.241 33.9546 14.6622 33.9546 14.1799Z" fill="white"/>
<path d="M16.9773 39.067C16.9773 38.7777 17.0738 38.5847 17.2667 38.3918C17.6525 37.9095 18.0384 37.3307 18.4242 36.8484C18.8101 36.3661 19.1959 35.7873 19.5818 35.305C19.7747 35.0156 20.0641 34.9192 20.3535 34.9192C20.4499 34.9192 20.6428 34.9192 20.7393 35.0156C21.2216 35.2086 21.6075 35.5944 21.6075 36.2697C21.6075 36.559 21.4145 36.752 21.2216 37.0414C20.7393 37.7166 20.3535 38.2954 19.8711 38.8741C19.5818 39.26 19.3888 39.6458 19.0995 39.9352C18.7136 40.4175 18.0384 40.514 17.5561 40.0317C17.1702 39.7423 16.9773 39.4529 16.9773 39.067Z" fill="white"/>
<path d="M21.8968 37.813C22.2827 37.6201 22.6685 37.7166 22.9579 37.9095C23.2473 38.1024 23.4402 38.3918 23.4402 38.5847C23.5367 39.067 23.3438 39.3564 23.0544 39.6458C22.6685 40.1281 22.3791 40.6104 21.9933 41.1892C21.8004 41.4786 21.511 41.8644 21.1251 41.9609C20.9322 42.0574 20.7393 41.9609 20.5464 41.9609C20.1605 41.768 19.8711 41.5751 19.7747 41.1892C19.5818 40.8034 19.7747 40.514 19.9676 40.1281C20.3534 39.5494 20.8358 38.9706 21.2216 38.3918C21.511 38.1024 21.6075 37.9095 21.8968 37.813Z" fill="white"/>
<path d="M22.765 42.7326C22.6685 42.4432 22.8614 42.2503 23.0544 42.0573C23.3437 41.6715 23.5367 41.2856 23.8261 40.9963C24.1154 40.6104 24.5978 40.514 25.0801 40.7069C25.4659 40.8998 25.7553 41.1892 25.8518 41.6715C25.8518 41.8644 25.7553 42.0573 25.6588 42.2503C25.3694 42.6361 25.0801 43.1184 24.7907 43.5043C24.3084 43.9866 23.7296 43.9866 23.2473 43.5043C22.9579 43.4078 22.765 43.1184 22.765 42.7326Z" fill="white"/>
<path d="M16.2056 35.2086C16.6879 35.2086 17.2667 35.6909 17.3631 36.0767C17.4596 36.3661 17.4596 36.6555 17.2667 36.8484C16.9773 37.2343 16.6879 37.7166 16.3985 38.1024C16.1091 38.4883 15.6268 38.5847 15.1445 38.2953C14.6622 38.006 14.3728 37.6201 14.4693 37.0413C14.4693 36.9449 14.4693 36.8484 14.5658 36.7519C14.8551 36.3661 15.1445 35.8838 15.5304 35.4979C15.5304 35.2086 15.9162 35.2086 16.2056 35.2086Z" fill="white"/>
<path d="M30.7713 14.6622L31.3501 15.7233L24.2119 20.257L21.6075 16.0127L22.6685 15.4339L24.5013 18.6172" fill="white"/>
<path d="M16.7843 24.3084C16.7843 24.2119 16.7843 24.1155 16.7843 24.019C16.6879 23.6331 16.3985 23.2473 16.0126 23.0544C15.048 22.4756 14.0834 21.9933 13.1188 21.4145C12.4436 21.0287 11.5754 21.3181 11.1896 21.9933C11.0931 22.1862 10.9966 22.3791 10.9002 22.5721C10.4179 23.3438 9.93555 24.2119 9.45324 24.9836C8.68155 26.2376 8.00631 27.4916 7.23462 28.8421C6.75231 29.5173 7.0417 30.3855 7.71693 30.7713C8.68155 31.3501 9.64617 31.8324 10.6108 32.4112C10.8037 32.5076 10.9966 32.6041 11.1896 32.6041C11.6719 32.7006 12.2506 32.5076 12.54 32.0253C12.9259 31.4466 13.3117 30.7713 13.6011 30.1925C14.5657 28.5527 15.5303 26.9128 16.3985 25.273C16.5914 24.9836 16.7843 24.6942 16.7843 24.3084ZM11.1896 31.543C10.8037 31.543 10.5143 31.2536 10.5143 30.8678C10.5143 30.4819 10.8037 30.1925 11.1896 30.1925C11.5754 30.1925 11.8648 30.4819 11.8648 30.8678C11.8648 31.2536 11.5754 31.543 11.1896 31.543Z" fill="white"/>
<path d="M37.6201 25.273C38.5847 26.9129 39.5493 28.5527 40.4175 30.1926C40.8033 30.7713 41.0927 31.4466 41.4786 32.0253C41.768 32.4112 42.3467 32.7006 42.829 32.6041C43.022 32.5077 43.2149 32.5077 43.4078 32.4112C44.3724 31.8324 45.337 31.3501 46.3017 30.7713C46.9769 30.3855 47.2663 29.5173 46.784 28.7456C46.0123 27.4916 45.337 26.2376 44.5654 24.8872C44.083 24.1155 43.6007 23.2473 43.1184 22.4756C43.022 22.2827 42.9255 22.0898 42.829 21.8969C42.4432 21.2216 41.575 20.9322 40.8998 21.3181C39.9352 21.8969 38.9706 22.4756 38.006 22.9579C37.6201 23.1509 37.3307 23.5367 37.2343 23.9226C37.2343 24.019 37.2343 24.1155 37.2343 24.2119C37.2343 24.6942 37.4272 24.9836 37.6201 25.273ZM42.1538 30.8678C42.1538 30.482 42.4432 30.1926 42.829 30.1926C43.2149 30.1926 43.5043 30.482 43.5043 30.8678C43.5043 31.2537 43.2149 31.543 42.829 31.543C42.5397 31.543 42.1538 31.2537 42.1538 30.8678Z" fill="white"/>
</g>
<defs>
<clipPath id="clip0_206_12">
<rect width="51.8" height="51.8" fill="white"/>
</clipPath>
</defs>
</svg>
