<svg width="1440" height="347" viewBox="0 0 1440 347" fill="none" xmlns="http://www.w3.org/2000/svg">
<path fill-rule="evenodd" clip-rule="evenodd" d="M155.196 347L74.4216 208.419H26.883V347H-25V0.486244H88.2849C114.321 0.486244 136.51 4.92934 154.69 14.01C173.092 23.0398 186.993 35.3455 196.181 50.9871C205.318 66.5422 209.842 84.2381 209.842 103.966C209.842 128.096 202.781 149.493 188.638 168.009C175.546 185.548 156.279 197.385 131.203 203.726L217.13 347H155.196ZM125.266 201.216C126.58 200.931 127.878 200.632 129.16 200.319C154.138 194.212 172.952 182.679 185.604 165.72C199.228 147.891 206.04 127.306 206.04 103.966C206.04 84.8405 201.661 67.8217 192.902 52.9101C184.144 37.9984 170.844 26.1663 153.002 17.4138C135.484 8.66132 113.912 4.28507 88.2849 4.28507H-21.1985V343.201H23.0815V204.62H76.6067L157.381 343.201H210.42L125.266 201.216ZM139.687 60.0481C129.003 49.9649 112.131 44.5526 88.2849 44.5526H26.883V165.325H88.2849C111.717 165.325 128.592 159.632 139.627 148.914C150.786 137.753 156.499 122.903 156.499 103.966C156.499 84.6638 150.766 70.2228 139.725 60.0835L139.687 60.0481ZM142.297 151.619C130.294 163.289 112.29 169.124 88.2849 169.124H23.0815V40.7538H88.2849C112.615 40.7538 130.618 46.2646 142.297 57.2863C154.299 68.308 160.301 83.868 160.301 103.966C160.301 123.74 154.299 139.625 142.297 151.619ZM446.52 149.765V193.831H322.925V302.934H461.118V347H271.042V0H461.118V44.0664H322.925V149.765H446.52ZM319.124 40.2676H457.316V3.79883H274.844V343.201H457.316V306.732H319.124V190.032H442.718V153.564H319.124V40.2676ZM810.093 0.486244L679.25 347H622.9L492.058 0.486244H547.415L651.319 285.426L755.222 0.486244H810.093ZM651.319 296.521L544.755 4.28507H497.555L625.529 343.201H676.621L804.595 4.28507H757.882L651.319 296.521ZM901.23 0.486244V347H849.347V0.486244H901.23ZM1258.67 0.486244L1127.83 347H1071.48L940.635 0.486244H995.993L1099.9 285.425L1203.8 0.486244H1258.67ZM1099.9 296.521L993.333 4.28507H946.133L1074.11 343.201H1125.2L1253.17 4.28507H1206.46L1099.9 296.521ZM1473.4 149.765V193.831H1349.81V302.934H1488V347H1297.92V0H1488V44.0664H1349.81V149.765H1473.4ZM1346.01 40.2676H1484.2V3.79883H1301.73V343.201H1484.2V306.732H1346.01V190.032H1469.6V153.564H1346.01V40.2676ZM897.428 4.28507H853.148V343.201H897.428V4.28507Z" fill="white" fill-opacity="0.08"/>
</svg>
