<svg width="375" height="375" viewBox="0 0 375 375" fill="none" xmlns="http://www.w3.org/2000/svg">
<path fill-rule="evenodd" clip-rule="evenodd" d="M187.849 10.9749C90.1642 10.9749 10.9749 90.1642 10.9749 187.849C10.9749 285.534 90.1642 364.723 187.849 364.723C285.534 364.723 364.723 285.534 364.723 187.849C364.723 90.1642 285.534 10.9749 187.849 10.9749ZM9.97486 187.849C9.97486 89.6119 89.6119 9.97485 187.849 9.97485C286.086 9.97485 365.723 89.6119 365.723 187.849C365.723 286.086 286.086 365.723 187.849 365.723C89.6119 365.723 9.97486 286.086 9.97486 187.849Z" fill="white" fill-opacity="0.05"/>
<path fill-rule="evenodd" clip-rule="evenodd" d="M187.849 3.99158C86.1675 3.99158 3.99162 85.4741 3.99162 187.151C3.99162 288.829 86.8671 371.008 187.849 371.008C288.834 371.008 371.707 289.525 371.707 187.849C371.707 86.1712 288.831 3.99158 187.849 3.99158ZM2.99162 187.151C2.99162 84.9169 85.6202 2.99158 187.849 2.99158C289.381 2.99158 372.707 85.6164 372.707 187.849C372.707 290.084 289.379 372.008 187.849 372.008C86.3173 372.008 2.99162 289.383 2.99162 187.151Z" fill="white" fill-opacity="0.05"/>
<path d="M173.883 290.503C177.374 284.916 177.374 279.329 173.184 274.441C169.693 269.553 164.804 266.76 158.52 269.553C159.218 267.458 159.916 266.061 160.615 264.665C162.709 259.776 162.011 255.586 157.821 251.396C155.726 249.301 153.631 247.905 151.536 246.508C147.346 245.112 143.855 245.81 140.363 247.905C136.173 250.698 133.38 254.19 131.285 258.38C131.285 259.078 130.587 259.078 130.587 259.776C129.888 256.285 128.492 254.19 126.397 252.095C123.603 249.301 120.112 248.603 115.922 249.301C113.827 249.301 112.43 250 110.335 251.396C109.637 251.396 109.637 251.396 108.939 250.698C104.749 246.508 99.8603 241.62 95.6704 237.43C94.9721 236.732 94.9721 236.732 95.6704 235.335C100.559 226.257 105.447 217.877 111.034 208.799C116.62 199.022 121.508 189.944 127.095 180.167C127.793 178.771 128.492 178.771 130.587 178.771C134.078 179.469 136.872 180.167 140.363 181.564C145.95 183.659 150.838 185.754 156.425 187.849C157.123 188.547 157.821 188.547 157.123 189.944C153.631 194.832 150.14 200.419 146.648 206.005C145.251 208.1 143.855 210.195 142.458 212.29C141.061 215.084 140.363 217.877 141.061 221.369C141.76 224.162 144.553 226.257 147.346 226.955C152.235 229.05 157.123 228.352 162.011 226.257C164.804 224.86 167.598 224.162 170.391 222.067C172.486 220.67 174.581 218.575 175.978 216.48C178.771 212.989 182.263 208.799 185.056 205.307C188.547 201.815 193.436 201.815 197.626 203.91C206.006 208.799 215.084 214.385 223.464 219.274C231.145 224.162 238.128 229.05 245.112 233.938C251.397 238.128 257.682 243.017 263.966 247.207C267.458 250 271.648 252.095 275.14 254.888C276.536 255.586 277.933 256.983 278.631 258.38C280.028 259.776 280.028 261.871 279.33 263.966C278.631 266.061 277.933 267.458 276.536 268.855C274.441 271.648 271.648 272.346 268.156 270.95C261.173 268.156 255.587 264.665 249.302 261.173C242.318 256.983 234.637 252.095 227.654 247.905C226.955 247.206 225.559 247.207 224.86 247.207C223.464 247.207 222.067 247.905 222.067 248.603C221.369 250 222.067 251.396 223.464 252.095C228.352 254.888 233.24 257.681 238.827 260.475C245.81 264.665 253.492 268.855 260.475 273.044C261.871 273.743 263.966 277.234 262.57 280.726C261.871 282.821 260.475 284.916 259.078 287.011C257.682 289.106 254.888 289.106 252.793 288.408C249.302 287.709 247.207 285.614 244.413 284.218C238.128 280.726 231.145 276.536 224.86 273.044C222.067 271.648 219.972 270.251 217.179 268.855C215.782 268.156 214.385 268.156 212.989 269.553C212.29 270.95 212.291 272.346 214.385 273.743C222.067 278.631 229.749 282.123 237.43 287.011C239.525 288.408 241.62 289.106 244.413 290.503C245.112 291.201 245.81 291.201 245.81 292.598C245.81 296.788 243.017 301.676 238.827 303.072C237.43 303.771 235.335 303.771 233.24 303.072C229.05 301.676 225.559 300.279 221.369 298.184C215.084 295.391 209.497 292.598 203.212 289.804C202.514 289.804 201.816 289.804 201.816 290.503C201.117 291.201 200.419 292.598 201.816 293.296C203.212 293.994 204.609 294.693 206.006 296.089C212.291 299.581 218.575 303.072 225.559 307.262C226.955 307.961 226.257 308.659 226.257 309.357C223.464 313.547 219.972 315.642 215.084 315.642C212.29 315.642 210.196 314.944 207.402 314.246C202.514 312.849 198.324 310.754 194.134 308.659C193.436 307.961 192.737 307.961 193.436 306.564C194.832 303.072 195.531 299.581 193.436 296.089C187.849 293.296 183.659 289.106 173.883 290.503Z" fill="white" fill-opacity="0.05"/>
<path d="M223.464 175.978C224.86 176.676 226.257 176.676 226.955 177.374C230.447 178.072 233.24 179.469 236.732 180.167C240.922 181.564 245.81 182.961 250.698 182.961C252.793 182.961 254.19 182.961 256.285 182.961C259.078 182.961 261.871 182.262 264.665 180.866C266.061 182.961 266.76 185.056 268.156 187.151C270.95 192.737 274.441 198.324 277.235 203.91C281.425 210.894 284.916 218.575 289.106 225.559C290.503 228.352 292.598 231.843 293.994 234.637C293.994 235.335 293.994 236.033 293.994 236.732C291.899 240.922 289.106 244.413 285.615 247.207C282.821 249.302 280.028 250.698 277.235 252.095H275.838C270.95 248.603 266.061 245.112 261.173 241.62C256.983 238.128 252.095 235.335 247.207 231.843C241.62 228.352 236.033 224.162 230.447 220.67C224.86 216.48 218.575 212.989 212.989 208.799C207.402 205.307 201.816 201.816 196.229 199.022C193.436 197.626 190.642 197.626 187.151 197.626C185.056 198.324 182.961 199.721 181.564 201.117C177.374 205.307 172.486 210.195 168.296 214.385C164.804 217.877 161.313 219.972 156.425 221.369C153.631 222.067 151.536 222.765 148.743 222.067C144.553 221.369 143.156 218.575 145.251 215.084C148.743 209.497 151.536 203.91 155.028 199.022C157.123 195.531 159.916 192.039 162.709 187.849C163.408 186.452 164.804 185.056 165.503 184.357C166.201 183.659 166.201 182.961 165.503 182.262C163.408 180.866 162.011 179.469 159.916 178.073C157.821 175.978 155.028 173.883 152.933 171.788C145.251 164.106 138.966 155.726 134.777 145.251C132.682 141.061 131.285 136.173 129.888 131.285C128.492 127.095 127.793 122.905 127.095 118.017C125.698 110.335 125.698 102.654 125.698 94.972C125.698 90.0837 126.397 85.8937 127.095 81.0055C127.793 77.5139 128.492 74.0222 129.19 69.8323C129.19 69.8323 129.888 69.134 130.587 69.134C133.38 69.134 136.173 69.134 138.966 69.134C143.156 69.134 146.648 68.4356 150.838 67.7373C154.33 67.039 158.52 66.3407 162.011 64.944C167.598 63.5474 172.486 60.7541 177.374 57.9608C181.564 55.1675 185.754 52.3742 189.246 48.8826C189.944 48.1842 189.944 48.1842 190.642 48.8826C198.324 55.8658 206.704 60.7541 215.782 64.2457C220.67 65.6423 224.86 67.039 229.749 67.7373C236.034 69.134 241.62 69.134 247.905 69.134C250 69.134 250 69.134 250.698 71.2289C251.397 74.0222 251.397 76.1172 252.095 78.9105C252.095 80.3071 252.793 81.7038 252.793 83.1004C252.793 84.4971 253.492 86.5921 253.492 87.9887C253.492 94.972 254.888 101.257 253.492 108.24C252.793 111.033 253.492 113.827 252.793 116.62C252.095 120.112 251.397 123.603 250.698 127.095C250 130.586 248.603 134.078 247.207 138.268C245.112 143.855 243.017 148.743 239.525 154.329C235.335 161.313 230.447 167.598 224.162 173.883C224.86 174.581 224.162 175.279 223.464 175.978ZM245.81 102.654C245.81 98.4636 245.81 94.9719 245.112 92.1787C244.413 88.687 243.715 84.4971 243.715 81.0055C243.715 80.3072 243.017 79.6088 242.318 79.6088C237.43 78.9105 232.542 78.9105 228.352 78.2122C224.162 77.5138 219.972 76.8155 216.48 75.4189C208.101 72.6256 199.721 68.4356 192.737 63.5474C190.642 62.1507 190.642 62.1507 189.246 63.5474C189.246 63.5474 188.547 63.5474 188.547 64.2457C182.961 68.4356 175.978 71.9273 168.994 74.7206C165.503 76.1172 162.011 76.8155 158.52 78.2122C155.028 78.9105 151.536 79.6088 148.045 80.3071C145.251 81.0055 142.458 81.0055 138.966 81.0055C138.268 81.0055 137.57 81.0055 137.57 82.4021C137.57 83.7988 136.871 85.8937 136.871 87.2904C136.173 92.1787 135.475 97.0669 135.475 102.654C135.475 110.335 136.173 117.318 137.57 124.302C138.966 129.19 140.363 134.078 141.76 138.268C145.251 147.346 150.14 155.726 156.425 163.408C161.313 168.994 166.899 173.883 173.184 178.073C175.279 179.469 176.676 180.167 179.469 180.167C183.659 179.469 187.849 179.469 191.341 178.771C195.531 178.073 199.022 178.072 203.212 177.374C205.307 177.374 207.402 177.374 208.799 176.676C209.497 176.676 209.497 176.676 210.196 175.978C212.29 173.883 215.084 172.486 217.179 170.391C223.464 164.804 229.05 158.519 233.24 150.838C237.43 143.855 240.922 136.173 242.318 128.491C243.715 124.302 243.715 120.112 244.413 115.922C245.81 110.335 245.81 106.145 245.81 102.654Z" fill="white" fill-opacity="0.05"/>
<path d="M122.905 282.821C122.905 280.726 123.603 279.33 125 277.933C127.793 274.441 130.587 270.251 133.38 266.76C136.173 263.268 138.966 259.078 141.76 255.587C143.156 253.492 145.251 252.793 147.346 252.793C148.045 252.793 149.441 252.793 150.14 253.492C153.631 254.888 156.425 257.682 156.425 262.57C156.425 264.665 155.028 266.062 153.631 268.157C150.14 273.045 147.346 277.235 143.855 281.425C141.76 284.218 140.363 287.011 138.268 289.106C135.475 292.598 130.587 293.296 127.095 289.805C124.302 287.71 122.905 285.615 122.905 282.821Z" fill="white" fill-opacity="0.05"/>
<path d="M158.52 273.743C161.313 272.347 164.106 273.045 166.201 274.441C168.296 275.838 169.693 277.933 169.693 279.33C170.391 282.821 168.994 284.916 166.899 287.011C164.106 290.503 162.011 293.995 159.218 298.185C157.821 300.279 155.726 303.073 152.933 303.771C151.536 304.469 150.14 303.771 148.743 303.771C145.95 302.374 143.855 300.978 143.156 298.185C141.76 295.391 143.156 293.296 144.553 290.503C147.346 286.313 150.838 282.123 153.631 277.933C155.726 275.838 156.425 274.441 158.52 273.743Z" fill="white" fill-opacity="0.05"/>
<path d="M164.804 309.357C164.106 307.262 165.503 305.866 166.899 304.469C168.994 301.676 170.391 298.883 172.486 296.788C174.581 293.994 178.073 293.296 181.564 294.693C184.358 296.089 186.453 298.184 187.151 301.676C187.151 303.072 186.453 304.469 185.754 305.866C183.659 308.659 181.564 312.151 179.469 314.944C175.978 318.436 171.788 318.436 168.296 314.944C166.201 314.246 164.804 312.151 164.804 309.357Z" fill="white" fill-opacity="0.05"/>
<path d="M117.318 254.888C120.81 254.888 125 258.38 125.698 261.173C126.397 263.268 126.397 265.363 125 266.76C122.905 269.553 120.81 273.045 118.715 275.838C116.62 278.631 113.129 279.33 109.637 277.235C106.145 275.14 104.05 272.346 104.749 268.156C104.749 267.458 104.749 266.76 105.447 266.061C107.542 263.268 109.637 259.777 112.43 256.983C112.43 254.888 115.223 254.888 117.318 254.888Z" fill="white" fill-opacity="0.05"/>
<path d="M222.765 106.145L226.955 113.827L175.279 146.648L156.425 115.922L164.106 111.732L177.374 134.777" fill="white" fill-opacity="0.05"/>
<path d="M121.508 175.977C121.508 175.279 121.508 174.581 121.508 173.882C120.81 171.089 118.715 168.296 115.922 166.899C108.939 162.709 101.955 159.218 94.972 155.028C90.0838 152.234 83.7989 154.329 81.0056 159.218C80.3072 160.614 79.6089 162.011 78.9106 163.408C75.419 168.994 71.9274 175.279 68.4357 180.866C62.8491 189.944 57.9609 199.022 52.3743 208.799C48.8827 213.687 50.9776 219.972 55.8659 222.765C62.8491 226.955 69.8324 230.447 76.8156 234.637C78.2123 235.335 79.6089 236.033 81.0056 236.033C84.4972 236.732 88.6871 235.335 90.7821 231.843C93.5754 227.653 96.3687 222.765 98.4637 218.575C105.447 206.704 112.43 194.832 118.715 182.961C120.112 180.866 121.508 178.771 121.508 175.977ZM81.0056 228.352C78.2123 228.352 76.1173 226.257 76.1173 223.463C76.1173 220.67 78.2123 218.575 81.0056 218.575C83.7989 218.575 85.8938 220.67 85.8938 223.463C85.8938 226.257 83.7989 228.352 81.0056 228.352Z" fill="white" fill-opacity="0.05"/>
<path d="M272.346 182.961C279.33 194.832 286.313 206.704 292.598 218.575C295.391 222.765 297.486 227.654 300.279 231.844C302.374 234.637 306.564 236.732 310.056 236.034C311.453 235.335 312.849 235.335 314.246 234.637C321.229 230.447 328.212 226.955 335.196 222.765C340.084 219.972 342.179 213.687 338.687 208.101C333.101 199.022 328.212 189.944 322.626 180.168C319.134 174.581 315.642 168.296 312.151 162.709C311.452 161.313 310.754 159.916 310.056 158.52C307.263 153.631 300.978 151.536 296.089 154.33C289.106 158.52 282.123 162.709 275.14 166.201C272.346 167.598 270.251 170.391 269.553 173.184C269.553 173.883 269.553 174.581 269.553 175.279C269.553 178.771 270.95 180.866 272.346 182.961ZM305.168 223.464C305.168 220.67 307.263 218.575 310.056 218.575C312.849 218.575 314.944 220.67 314.944 223.464C314.944 226.257 312.849 228.352 310.056 228.352C307.961 228.352 305.168 226.257 305.168 223.464Z" fill="white" fill-opacity="0.05"/>
</svg>
