<svg width="312" height="312" viewBox="0 0 312 312" fill="none" xmlns="http://www.w3.org/2000/svg">
<path fill-rule="evenodd" clip-rule="evenodd" d="M155.707 8.72574C74.5316 8.72574 8.72571 74.5316 8.72571 155.707C8.72571 236.883 74.5316 302.689 155.707 302.689C236.883 302.689 302.689 236.883 302.689 155.707C302.689 74.5316 236.883 8.72574 155.707 8.72574ZM7.66449 155.707C7.66449 73.9455 73.9455 7.66452 155.707 7.66452C237.469 7.66452 303.75 73.9455 303.75 155.707C303.75 237.469 237.469 303.75 155.707 303.75C73.9455 303.75 7.66449 237.469 7.66449 155.707Z" fill="white" fill-opacity="0.05"/>
<path fill-rule="evenodd" clip-rule="evenodd" d="M155.707 4.04282C71.7077 4.04282 3.45746 72.2931 3.45746 156.293C3.45746 240.292 71.7077 308.543 155.707 308.543C240.294 308.543 308.541 240.291 307.957 156.296V156.293C307.957 72.2931 239.707 4.04282 155.707 4.04282ZM2.39624 156.293C2.39624 71.707 71.1216 2.9816 155.707 2.9816C240.293 2.9816 309.018 71.707 309.018 156.293H308.488L309.018 156.289C309.018 156.29 309.018 156.291 309.018 156.293C309.604 240.882 240.875 309.604 155.707 309.604C71.1216 309.604 2.39624 240.878 2.39624 156.293Z" fill="white" fill-opacity="0.05"/>
<path d="M248.78 171.512C246.439 172.098 244.683 172.683 242.927 173.854C234.146 179.122 225.366 184.976 216.585 190.244C214.244 191.415 212.488 193.171 210.146 194.927C211.902 197.854 213.659 200.195 216 203.122C217.171 202.537 218.341 201.951 218.927 200.781C225.951 196.098 232.39 191.415 239.415 186.732C242.927 184.39 246.439 183.22 250.537 181.463C252.878 180.293 254.049 182.049 253.463 184.39C253.463 185.561 252.878 186.732 252.293 187.317C250.537 189.659 248.78 192 247.024 194.341C240 202.537 231.805 208.976 223.61 215.415C211.317 224.781 199.024 233.561 185.561 240.585C180.293 243.512 175.024 245.854 169.171 246.439C158.634 247.61 148.098 245.854 137.561 242.927C132.878 241.756 128.195 240 123.512 238.244C112.976 234.146 101.268 234.146 89.561 234.146C87.8049 234.146 86.6342 233.561 86.6342 231.805C84.8781 220.098 83.122 208.976 81.9512 197.268C81.9512 196.098 81.9512 195.512 83.122 194.927C88.9756 192.585 94.2439 189.659 100.098 186.732C113.561 180.293 126.439 179.122 139.902 186.732C140.488 187.317 141.073 187.317 142.244 187.902C149.268 190.244 156.293 193.171 163.902 195.512C172.098 197.854 180.293 200.781 187.902 204.878C190.829 206.634 193.171 208.976 195.512 211.317C197.854 213.659 196.683 216.585 193.171 216.585C190.829 216.585 187.902 216.585 185.561 216.585C177.366 215.415 169.756 213.659 161.561 212.488C150.439 210.146 139.902 208.976 128.78 209.561C124.683 209.561 122.927 211.902 122.927 214.829C122.927 217.756 125.268 219.512 129.366 219.512C134.634 219.512 139.317 219.512 144.585 220.098C153.951 221.268 163.317 223.024 172.683 224.781C180.293 225.951 187.902 227.707 195.512 227.122C205.463 225.951 210.732 215.415 204.878 206.634C203.122 204.293 200.781 201.951 198.439 199.61C191.415 193.756 182.634 190.244 173.854 187.902C163.317 184.976 152.78 181.463 142.829 176.781C129.951 170.341 115.902 169.756 102.439 175.024C95.4146 177.951 88.3903 181.463 81.3659 184.39C80.1951 184.976 79.0244 184.976 77.8537 183.805C75.5122 181.463 72 180.293 68.4878 180.878C64.9756 181.463 61.4634 182.049 57.3659 182.634C50.3415 183.805 46.2439 189.073 47.4146 196.098C49.7561 212.488 52.0976 228.878 54.439 245.268C55.6098 252.293 60.8781 256.39 67.9024 255.22C70.8293 254.634 74.3415 254.049 77.2683 254.049C82.5366 253.463 86.0488 250.537 87.8049 245.854C87.8049 245.268 88.9756 244.098 89.561 244.098C100.098 243.512 110.049 244.098 120 247.61C127.024 249.951 133.463 252.293 140.488 254.049C159.22 259.317 177.366 257.561 194.341 247.024C208.39 238.829 221.854 229.463 234.732 218.927C241.756 213.073 248.78 206.634 255.805 199.61C259.902 195.512 262.829 190.829 264 185.561C265.756 178.537 259.317 169.171 248.78 171.512ZM65.561 207.805C62.0488 207.805 59.7073 205.463 59.7073 201.366C59.7073 198.439 62.0488 195.512 64.9756 195.512C68.4878 195.512 70.8293 197.854 70.8293 201.951C70.8293 205.463 68.4878 207.805 65.561 207.805Z" fill="white" fill-opacity="0.05"/>
<path d="M94.2439 149.854C101.854 153.951 109.463 153.951 117.659 151.61C127.61 148.683 135.22 139.902 135.805 129.951C135.805 127.024 135.22 125.854 132.293 125.854C130.537 125.854 129.951 125.268 129.366 124.098C126.439 118.829 124.098 112.976 121.171 107.707C118.829 103.024 116.488 98.3415 114.146 93.6585C118.244 91.3171 121.756 88.9756 125.268 86.6341C128.78 84.2927 132.293 81.3658 136.39 79.0244C140.488 76.6829 144.585 76.0975 148.683 77.8536C152.78 79.6097 153.366 80.1951 153.366 84.878C153.366 85.4634 153.366 86.0488 153.366 86.6341C153.366 110.049 153.366 134.049 153.366 157.463C153.366 159.219 152.78 160.39 151.024 160.39C147.512 160.39 144 160.39 140.488 160.39C134.634 160.39 129.366 160.39 123.512 160.39C121.756 160.39 120 162.146 120 163.902C120 165.659 121.756 167.415 123.512 167.415C124.098 167.415 125.268 167.415 125.854 167.415C141.659 167.415 157.463 167.415 173.268 167.415C179.122 167.415 184.39 167.415 190.244 167.415C192 167.415 193.756 166.829 194.341 164.488C194.927 162.146 193.171 159.805 189.659 159.805C180.878 159.805 172.098 159.805 163.317 159.805C161.561 159.805 160.39 159.219 160.39 156.878C160.39 131.707 160.39 107.122 160.39 81.9512C160.39 80.7805 160.976 79.6097 162.146 79.0244C166.829 75.5122 172.098 75.5122 176.78 78.439C179.707 80.1951 182.634 82.5366 185.561 84.2927C189.659 87.2195 193.756 89.561 198.439 92.4878C199.61 93.0732 199.61 94.2439 199.024 94.8293C194.341 104.78 189.073 114.732 184.39 124.098C183.805 124.683 182.634 125.854 182.049 125.854C179.122 126.439 178.537 127.024 178.537 129.951C179.122 140.488 185.561 146.927 194.927 151.024C202.537 153.951 210.146 153.951 217.171 151.024C226.537 147.512 232.976 138.146 232.976 129.366C232.976 127.61 232.39 125.854 230.049 125.854C227.707 125.854 227.122 124.683 226.537 123.512C221.854 114.146 217.171 104.78 212.488 95.4146C211.902 94.8293 211.902 93.6585 211.317 93.0732C213.659 91.9024 216 90.7317 217.756 89.561C219.512 88.3902 220.098 86.6341 218.927 84.878C217.756 83.1219 216 82.5366 214.244 83.7073C213.659 83.7073 213.659 84.2927 213.073 84.2927C207.805 87.2195 202.537 87.2195 197.268 84.2927C195.512 83.1219 194.341 82.5366 193.171 81.3658C189.659 78.439 185.561 75.5122 182.049 73.1707C175.61 69.0732 168.585 67.9024 161.561 70.8293H160.976C160.39 67.3171 160.39 66.7317 163.317 65.561C169.171 62.6341 172.098 56.1951 170.341 50.3415C168.585 43.9024 163.317 39.8049 156.878 39.8049C150.439 39.8049 145.171 44.4878 143.415 50.3415C142.244 56.7805 145.171 62.6341 150.439 65.561C153.366 66.7317 153.366 67.9024 152.195 70.8293C152.195 70.8293 151.61 70.8293 151.024 70.8293C142.829 67.3171 135.805 69.6585 129.366 73.7561C125.854 76.0976 122.341 79.0244 118.829 81.3658C116.488 83.1219 114.146 84.2927 111.219 85.4634C106.537 87.2195 102.439 86.0488 98.9268 83.7073C96.5853 82.5366 94.8293 83.1219 93.6585 84.878C92.4878 86.6341 93.0732 88.9756 94.8293 90.1463C95.4146 90.7317 96.5854 91.3171 97.1707 91.3171C98.3414 91.9024 100.098 92.4878 101.268 93.0732C96 103.61 90.7317 114.146 85.4634 124.683C84.878 125.268 84.2927 125.854 83.1219 125.854C80.1951 126.439 79.6097 127.024 79.6097 129.951C81.9512 138.732 86.6341 145.756 94.2439 149.854ZM206.049 98.3414C210.732 107.707 215.415 116.488 219.512 125.854H192C196.683 116.488 201.366 107.707 206.049 98.3414ZM108.293 98.3414C112.976 107.707 117.659 116.488 121.756 125.854H94.2439C98.9268 116.488 103.61 107.707 108.293 98.3414Z" fill="white" fill-opacity="0.05"/>
</svg>
