<svg width="54" height="54" viewBox="0 0 54 54" fill="none" xmlns="http://www.w3.org/2000/svg">
<g clip-path="url(#clip0_6_85)">
<path d="M26.6 51.8C40.5176 51.8 51.8 40.5176 51.8 26.6C51.8 12.6824 40.5176 1.39999 26.6 1.39999C12.6824 1.39999 1.40002 12.6824 1.40002 26.6C1.40002 40.5176 12.6824 51.8 26.6 51.8Z" stroke="white" stroke-miterlimit="10"/>
<path d="M26.6 52.8C12.2 52.8 0.5 41.1 0.5 26.7C0.5 12.3 12.2 0.600006 26.6 0.600006C41 0.600006 52.7 12.3 52.7 26.7C52.8 41.1 41.1 52.8 26.6 52.8Z" stroke="white" stroke-miterlimit="10"/>
<path d="M42.5 29.3C42.1 29.4 41.8 29.5 41.5 29.7C40 30.6 38.5 31.6 37 32.5C36.6 32.7 36.3 33 35.9 33.3C36.2 33.8 36.5 34.2 36.9 34.7C37.1 34.6 37.3 34.5 37.4 34.3C38.6 33.5 39.7 32.7 40.9 31.9C41.5 31.5 42.1 31.3 42.8 31C43.2 30.8 43.4 31.1 43.3 31.5C43.3 31.7 43.2 31.9 43.1 32C42.8 32.4 42.5 32.8 42.2 33.2C41 34.6 39.6 35.7 38.2 36.8C36.1 38.4 34 39.9 31.7 41.1C30.8 41.6 29.9 42 28.9 42.1C27.1 42.3 25.3 42 23.5 41.5C22.7 41.3 21.9 41 21.1 40.7C19.3 40 17.3 40 15.3 40C15 40 14.8 39.9 14.8 39.6C14.5 37.6 14.2 35.7 14 33.7C14 33.5 14 33.4 14.2 33.3C15.2 32.9 16.1 32.4 17.1 31.9C19.4 30.8 21.6 30.6 23.9 31.9C24 32 24.1 32 24.3 32.1C25.5 32.5 26.7 33 28 33.4C29.4 33.8 30.8 34.3 32.1 35C32.6 35.3 33 35.7 33.4 36.1C33.8 36.5 33.6 37 33 37C32.6 37 32.1 37 31.7 37C30.3 36.8 29 36.5 27.6 36.3C25.7 35.9 23.9 35.7 22 35.8C21.3 35.8 21 36.2 21 36.7C21 37.2 21.4 37.5 22.1 37.5C23 37.5 23.8 37.5 24.7 37.6C26.3 37.8 27.9 38.1 29.5 38.4C30.8 38.6 32.1 38.9 33.4 38.8C35.1 38.6 36 36.8 35 35.3C34.7 34.9 34.3 34.5 33.9 34.1C32.7 33.1 31.2 32.5 29.7 32.1C27.9 31.6 26.1 31 24.4 30.2C22.2 29.1 19.8 29 17.5 29.9C16.3 30.4 15.1 31 13.9 31.5C13.7 31.6 13.5 31.6 13.3 31.4C12.9 31 12.3 30.8 11.7 30.9C11.1 31 10.5 31.1 9.8 31.2C8.6 31.4 7.9 32.3 8.1 33.5C8.5 36.3 8.9 39.1 9.3 41.9C9.5 43.1 10.4 43.8 11.6 43.6C12.1 43.5 12.7 43.4 13.2 43.4C14.1 43.3 14.7 42.8 15 42C15 41.9 15.2 41.7 15.3 41.7C17.1 41.6 18.8 41.7 20.5 42.3C21.7 42.7 22.8 43.1 24 43.4C27.2 44.3 30.3 44 33.2 42.2C35.6 40.8 37.9 39.2 40.1 37.4C41.3 36.4 42.5 35.3 43.7 34.1C44.4 33.4 44.9 32.6 45.1 31.7C45.4 30.5 44.3 28.9 42.5 29.3ZM11.2 35.5C10.6 35.5 10.2 35.1 10.2 34.4C10.2 33.9 10.6 33.4 11.1 33.4C11.7 33.4 12.1 33.8 12.1 34.5C12.1 35.1 11.7 35.5 11.2 35.5Z" fill="white"/>
<path d="M16.1 25.6C17.4 26.3 18.7 26.3 20.1 25.9C21.8 25.4 23.1 23.9 23.2 22.2C23.2 21.7 23.1 21.5 22.6 21.5C22.3 21.5 22.2 21.4 22.1 21.2C21.6 20.3 21.2 19.3 20.7 18.4C20.3 17.6 19.9 16.8 19.5 16C20.2 15.6 20.8 15.2 21.4 14.8C22 14.4 22.6 13.9 23.3 13.5C24 13.1 24.7 13 25.4 13.3C26.1 13.6 26.2 13.7 26.2 14.5C26.2 14.6 26.2 14.7 26.2 14.8C26.2 18.8 26.2 22.9 26.2 26.9C26.2 27.2 26.1 27.4 25.8 27.4C25.2 27.4 24.6 27.4 24 27.4C23 27.4 22.1 27.4 21.1 27.4C20.8 27.4 20.5 27.7 20.5 28C20.5 28.3 20.8 28.6 21.1 28.6C21.2 28.6 21.4 28.6 21.5 28.6C24.2 28.6 26.9 28.6 29.6 28.6C30.6 28.6 31.5 28.6 32.5 28.6C32.8 28.6 33.1 28.5 33.2 28.1C33.3 27.7 33 27.3 32.4 27.3C30.9 27.3 29.4 27.3 27.9 27.3C27.6 27.3 27.4 27.2 27.4 26.8C27.4 22.5 27.4 18.3 27.4 14C27.4 13.8 27.5 13.6 27.7 13.5C28.5 12.9 29.4 12.9 30.2 13.4C30.7 13.7 31.2 14.1 31.7 14.4C32.4 14.9 33.1 15.3 33.9 15.8C34.1 15.9 34.1 16.1 34 16.2C33.2 17.9 32.3 19.6 31.5 21.2C31.4 21.3 31.2 21.5 31.1 21.5C30.6 21.6 30.5 21.7 30.5 22.2C30.6 24 31.7 25.1 33.3 25.8C34.6 26.3 35.9 26.3 37.1 25.8C38.7 25.2 39.8 23.6 39.8 22.1C39.8 21.8 39.7 21.5 39.3 21.5C38.9 21.5 38.8 21.3 38.7 21.1C37.9 19.5 37.1 17.9 36.3 16.3C36.2 16.2 36.2 16 36.1 15.9C36.5 15.7 36.9 15.5 37.2 15.3C37.5 15.1 37.6 14.8 37.4 14.5C37.2 14.2 36.9 14.1 36.6 14.3C36.5 14.3 36.5 14.4 36.4 14.4C35.5 14.9 34.6 14.9 33.7 14.4C33.4 14.2 33.2 14.1 33 13.9C32.4 13.4 31.7 12.9 31.1 12.5C30 11.8 28.8 11.6 27.6 12.1H27.5C27.4 11.5 27.4 11.4 27.9 11.2C28.9 10.7 29.4 9.59999 29.1 8.59999C28.8 7.49999 27.9 6.79999 26.8 6.79999C25.7 6.79999 24.8 7.59999 24.5 8.59999C24.3 9.69999 24.8 10.7 25.7 11.2C26.2 11.4 26.2 11.6 26 12.1C26 12.1 25.9 12.1 25.8 12.1C24.4 11.5 23.2 11.9 22.1 12.6C21.5 13 20.9 13.5 20.3 13.9C19.9 14.2 19.5 14.4 19 14.6C18.2 14.9 17.5 14.7 16.9 14.3C16.5 14.1 16.2 14.2 16 14.5C15.8 14.8 15.9 15.2 16.2 15.4C16.3 15.5 16.5 15.6 16.6 15.6C16.8 15.7 17.1 15.8 17.3 15.9C16.4 17.7 15.5 19.5 14.6 21.3C14.5 21.4 14.4 21.5 14.2 21.5C13.7 21.6 13.6 21.7 13.6 22.2C14 23.7 14.8 24.9 16.1 25.6ZM35.2 16.8C36 18.4 36.8 19.9 37.5 21.5H32.8C33.6 19.9 34.4 18.4 35.2 16.8ZM18.5 16.8C19.3 18.4 20.1 19.9 20.8 21.5H16.1C16.9 19.9 17.7 18.4 18.5 16.8Z" fill="white"/>
</g>
<defs>
<clipPath id="clip0_6_85">
<rect width="53.3" height="53.3" fill="white"/>
</clipPath>
</defs>
</svg>
